<svg xmlns="http://www.w3.org/2000/svg" xmlns:xlink="http://www.w3.org/1999/xlink" width="1440" height="123" viewBox="0 0 1440 123">
    <defs>
        <path id="a" d="M0 0h1440v152.894H0z"/>
    </defs>
    <g fill="none" fill-rule="evenodd" transform="translate(0 -30)">
        <mask id="b" fill="#fff">
            <use xlink:href="#a"/>
        </mask>
        <path fill="#FFF" d="M164.744 119.234c-.715-2.152 7.592-4.144 9.03-4.557 5.71-1.639 11.255-3.882 16.84-5.889.612-.22.96-1.226.206-1.547-3.177-1.354-6.492-2.554-9.553-4.146-1.74-.905-4.417-2.715-6.523-2.134-3.805 1.046-7.54 2.941-11.207 4.396-2.878 1.14-5.765 3.001-8.93 2.537a15.656 15.656 0 0 1-2.956-.748c-1.206-.43-1.324-.956-1.012-2.13.653-2.449 2.44-4.875 3.617-7.135.868-1.666 1.85-3.742.718-5.497-.694-1.077-2.473-1.45-3.57-1.916a8136.04 8136.04 0 0 1-6.565-2.8c-.387-.165-.975-.153-1.177.304l-4.56 10.345c-.35.797-.702 1.592-1.052 2.388.29.434.25.564-.122.394a9.412 9.412 0 0 1-.698-.23c-1.064-.375-2.086-.882-3.103-1.36-1.484-.694-3.574-2.446-5.26-2.314-2.173.17-2.714 2.41-3.373 4.142-.684 1.798-.924 3.662-.078 5.432.751 1.572 2.77 2.222 4.28 2.847 1.066.442 2.139.87 3.2 1.324.296.126.587.26.877.399.35.18.234.132-.349-.142l-.712 1.612-4.978 11.295c-.168.38-.157.96.309 1.157 3.086 1.315 6.151 2.82 9.321 3.922 2.046.712 3.42-1.016 4.158-2.61.967-2.087 1.588-4.287 2.36-6.445.345-.964.991-3.243 2.29-3.39 1.272-.147 2.658.8 3.643 1.466 1.282.866 1.754 1.932 2.306 3.328l2.26 5.726c1.35 3.42 2.451 7.12 4.152 10.383.93 1.78 3.787 2.502 5.536 3.091 3.378 1.139 6.629 2.708 9.905 4.103.586.25 1.596-.177 1.264-.956-3.55-8.33-7.073-16.786-10.663-25.037-.436-1.001-1.913-.136-1.485.856l.082.188c.438.999 1.92.138 1.486-.854-.029-.062-.055-.126-.083-.19l-1.485.856c.406.933.662 2.056 1.2 3.049 1.071 1.975 1.851 4.119 2.73 6.182 2.186 5.134 4.37 10.268 6.559 15.4l1.264-.955c-2.99-1.272-5.959-2.611-8.979-3.813-1.24-.492-2.533-.833-3.762-1.36-1.968-.842-2.411-2.15-3.153-4.029l-4.523-11.454c-.988-2.503-1.55-4.332-3.742-5.974-1.25-.937-3.482-2.12-5.126-1.624-1.809.546-2.496 2.438-3.135 4.025-.938 2.335-1.546 4.76-2.608 7.051-1.139 2.458-3.71.669-5.5-.094-1.802-.766-3.602-1.535-5.404-2.302l.309 1.156 4.623-10.486c.52-1.18 2.536-3.673.799-4.593-1.593-.844-3.364-1.418-5.025-2.116-2.662-1.118-3.474-2.704-2.637-5.473.23-.761.967-3.558 2.142-3.344 1.188.219 2.44 1.236 3.537 1.745 1.576.73 3.144 1.531 4.811 2.042 2.12.652 2.487-2.13 3.118-3.559l4.56-10.345c-.393.1-.785.201-1.177.303 1.914.816 3.829 1.633 5.744 2.448 1.796.765 4.534 1.238 3.844 3.658-.703 2.464-2.42 4.844-3.612 7.1-.614 1.163-1.84 3.45-1.068 4.79.838 1.452 2.882 1.905 4.408 2.24 1.676.37 3.27.573 4.877-.065l12.494-4.954c1.589-.63 3.687-1.982 5.436-1.676 1.363.236 2.653 1.014 3.86 1.649 3.206 1.687 6.662 2.961 9.997 4.383l.206-1.547c-6.28 2.256-12.522 4.539-18.899 6.501-2.251.693-9.351 2.481-8.173 6.026.343 1.034 2.005.592 1.659-.449M1453.998 143.699c-.776-2.364 8.235-4.55 9.796-5.004 6.193-1.8 12.208-4.264 18.267-6.467.663-.241 1.041-1.346.223-1.699-3.446-1.486-7.043-2.804-10.363-4.552-1.888-.994-4.792-2.98-7.076-2.343-4.127 1.149-8.18 3.23-12.157 4.827-3.122 1.253-6.253 3.295-9.687 2.786a16.816 16.816 0 0 1-3.206-.822c-1.308-.472-1.436-1.05-1.097-2.338.707-2.69 2.645-5.354 3.922-7.835.943-1.83 2.008-4.109.78-6.036-.753-1.183-2.683-1.592-3.873-2.104a8754.8 8754.8 0 0 1-7.12-3.074c-.42-.181-1.058-.169-1.278.334l-4.946 11.359c-.38.875-.761 1.748-1.142 2.622.316.476.271.619-.132.433a10.122 10.122 0 0 1-.757-.254c-1.154-.411-2.262-.968-3.366-1.492-1.61-.763-3.877-2.686-5.705-2.541-2.358.186-2.945 2.646-3.66 4.548-.742 1.974-1.002 4.02-.085 5.964.816 1.726 3.005 2.44 4.643 3.127 1.157.485 2.32.955 3.473 1.453.32.138.636.285.95.438.38.199.254.145-.378-.156l-.773 1.77-5.4 12.402c-.182.418-.17 1.054.335 1.27 3.347 1.445 6.673 3.097 10.112 4.307 2.22.782 3.709-1.115 4.51-2.866 1.049-2.29 1.722-4.707 2.56-7.076.374-1.059 1.075-3.56 2.483-3.722 1.38-.162 2.884.878 3.953 1.609 1.39.952 1.903 2.122 2.5 3.655l2.453 6.287c1.464 3.754 2.658 7.818 4.504 11.4 1.008 1.956 4.108 2.748 6.004 3.395 3.665 1.25 7.191 2.974 10.745 4.505.636.274 1.731-.194 1.37-1.05-3.85-9.146-7.671-18.431-11.565-27.49-.474-1.1-2.076-.15-1.612.938l.09.207c.475 1.097 2.082.152 1.611-.937l-.09-.209-1.61.94c.44 1.024.718 2.258 1.301 3.348 1.162 2.168 2.008 4.522 2.961 6.788 2.372 5.637 4.742 11.274 7.115 16.91l1.371-1.049c-3.242-1.397-6.463-2.867-9.74-4.187-1.345-.54-2.747-.914-4.08-1.492-2.134-.926-2.616-2.362-3.42-4.425l-4.907-12.577c-1.071-2.748-1.681-4.756-4.059-6.56-1.356-1.028-3.777-2.327-5.56-1.783-1.962.6-2.708 2.677-3.4 4.42-1.019 2.563-1.678 5.226-2.83 7.742-1.235 2.7-4.025.734-5.967-.103l-5.86-2.528c.11.423.222.847.334 1.27l5.015-11.514c.565-1.297 2.75-4.034.867-5.044-1.728-.927-3.649-1.557-5.45-2.323-2.889-1.228-3.77-2.97-2.861-6.01.25-.836 1.049-3.907 2.323-3.672 1.289.24 2.646 1.357 3.837 1.916 1.709.803 3.41 1.681 5.219 2.242 2.298.716 2.697-2.338 3.382-3.907l4.946-11.36c-.426.11-.852.221-1.277.333l6.231 2.688c1.949.84 4.918 1.36 4.17 4.016-.763 2.706-2.626 5.32-3.918 7.796-.666 1.277-1.997 3.788-1.16 5.26.91 1.595 3.127 2.092 4.783 2.46 1.818.407 3.547.629 5.29-.072 4.517-1.813 9.035-3.625 13.553-5.44 1.723-.69 4-2.176 5.897-1.84 1.478.26 2.878 1.114 4.186 1.811 3.478 1.852 7.228 3.252 10.845 4.812.075-.566.15-1.132.223-1.698-6.811 2.477-13.583 4.984-20.5 7.139-2.442.76-10.144 2.724-8.866 6.616.372 1.136 2.175.65 1.8-.492M14.387 92.03c.391-1.185 1.012-2.303 1.603-3.392 1.462-2.693 3.163-5.258 4.87-7.795 2.735-4.061 5.74-7.93 8.477-11.986.538-.798-.343-1.667-1.138-1.501-5.36 1.122-12.264.669-16.802 4.233-2.429 1.908-3.465 5.013-4.992 7.613-1.21 2.059-2.52 4.06-3.779 6.09-1.06 1.71-1.856 3.494-3.578 4.583-1.194.755-2.604 1.327-4.01 1.46-1.623.154-1.768-3.304-1.905-4.34-.275-2.091-.536-4.17-.914-6.244-.34-1.873-1.06-3.695-2.935-4.363-1.285-.46-3.243.399-4.466.67l-6.827 1.522c-.557.124-.818.736-.704 1.257l2.63 12.137c.03.132.514 2.41.581 2.38-.44.185-.929.278-1.39.389-.957.23-1.934.376-2.903.54-1.632.275-4.233.143-5.588 1.278-1.69 1.419-.814 3.793-.323 5.607.517 1.904 1.411 3.648 3.09 4.721 1.585 1.014 3.695.442 5.38.047 1.043-.244 2.082-.505 3.125-.751.437-.103.877-.197 1.318-.285.102-.018.206-.036.308-.052-.691.179-.79.624-.3 1.333l2.9 13.376c.122.565.726.83 1.24.714 3.395-.758 7.463-1.062 10.593-2.624 1.685-.842 1.602-2.975 1.355-4.54-.363-2.286-1.215-4.466-1.873-6.672-.356-1.201-.68-2.434-.697-3.693-.022-1.482 2.754-1.698 3.704-1.771 3.458-.26 6.53 2.827 9.258 4.62 3.357 2.206 6.711 4.926 10.308 6.697 1.952.959 4.672-.134 6.57-.713 3.562-1.085 7.322-1.689 10.954-2.498.882-.198.95-1.428.241-1.868-7.98-4.95-15.973-10.062-23.977-14.87-1.12-.674-2.126 1.082-1.017 1.764.062.039.122.076.185.11 1.127.663 2.141-1.103 1.017-1.765-.062-.034-.124-.072-.185-.109l-1.017 1.764c7.763 4.667 16.058 9.96 23.977 14.87l.24-1.866c-3.64.81-7.371 1.453-10.953 2.497-1.446.422-2.847.895-4.364.963-1.761.077-4.19-2.29-5.606-3.22l-10.711-7.042c-1.941-1.279-3.817-1.563-6.116-1.252-1.656.222-3.418.863-4.254 2.428-.821 1.538.076 3.987.5 5.496.63 2.238 1.403 4.39 1.873 6.673.582 2.836-2.486 2.853-4.503 3.303l-6.039 1.348 1.24.713-2.453-11.318c-.312-1.438-.157-5.139-2.34-4.861-1.85.237-3.672.81-5.485 1.235-3.078.721-4.627-.458-5.543-3.445-.26-.849-1.175-3.265.24-3.707 1.172-.365 2.534-.337 3.746-.568 1.721-.33 3.522-.486 5.154-1.168 2.022-.841.838-3.12.484-4.753-.878-4.043-1.755-8.09-2.632-12.135-.234.42-.469.837-.702 1.256 1.95-.433 3.9-.869 5.851-1.303 2.164-.482 4.739-1.85 5.637.941.686 2.134.837 4.586 1.103 6.806.231 1.911.402 4.477 1.95 5.821 1.586 1.378 4.329.127 5.905-.59 2.76-1.25 3.827-3.376 5.393-5.9 2.074-3.345 4.075-6.678 5.947-10.139 3.466-6.408 12.257-5.57 18.421-6.859l-1.138-1.5c-3.376 5.003-7.077 9.767-10.363 14.84-1.352 2.088-7.565 10.084-4.274 12.546 1.048.785 2.05-.99 1.017-1.765.136.103.272-1 .41-1.418zM1331.612 115.86c.147.112.294-1.084.444-1.537.423-1.283 1.095-2.494 1.734-3.673 1.582-2.918 3.423-5.697 5.27-8.445 2.96-4.4 6.21-8.591 9.171-12.985.582-.864-.371-1.806-1.231-1.627-5.799 1.216-13.27.725-18.179 4.586-2.628 2.067-3.75 5.432-5.401 8.248-1.309 2.23-2.728 4.399-4.089 6.598-1.147 1.852-2.008 3.784-3.872 4.965-1.29.817-2.817 1.437-4.338 1.58-1.756.168-1.913-3.578-2.06-4.702-.299-2.264-.581-4.517-.99-6.763-.368-2.03-1.147-4.003-3.176-4.727-1.39-.498-3.509.432-4.832.727-2.462.548-4.924 1.098-7.387 1.648-.602.135-.884.797-.761 1.362l2.846 13.148c.032.143.556 2.611.628 2.58-.475.199-1.005.3-1.503.42-1.037.249-2.094.407-3.142.584-1.765.299-4.58.156-6.046 1.385-1.828 1.537-.88 4.11-.349 6.074.56 2.064 1.527 3.953 3.343 5.115 1.716 1.099 3.998.479 5.821.051 1.128-.264 2.253-.547 3.381-.814.473-.111.949-.213 1.426-.309.11-.018.223-.039.333-.056-.747.194-.855.676-.323 1.444l3.137 14.491c.132.612.785.898 1.34.774 3.674-.822 8.076-1.15 11.462-2.843 1.824-.913 1.734-3.223 1.466-4.918-.392-2.477-1.314-4.839-2.026-7.229-.385-1.301-.737-2.636-.754-4-.024-1.605 2.98-1.84 4.008-1.919 3.741-.282 7.065 3.062 10.016 5.005 3.632 2.39 7.262 5.337 11.153 7.255 2.112 1.04 5.056-.145 7.108-.772 3.855-1.176 7.923-1.83 11.853-2.707.954-.213 1.028-1.547.26-2.023-8.633-5.362-17.281-10.9-25.942-16.11-1.212-.73-2.3 1.173-1.1 1.912.066.042.132.082.2.12 1.219.717 2.317-1.196 1.1-1.912-.067-.038-.134-.08-.2-.12l-1.1 1.912c8.4 5.055 17.374 10.79 25.942 16.11l.26-2.023c-3.939.879-7.976 1.574-11.851 2.706-1.565.457-3.08.97-4.722 1.043-1.905.083-4.533-2.48-6.065-3.488l-11.59-7.63c-2.1-1.384-4.13-1.692-6.616-1.356-1.792.24-3.699.935-4.603 2.63-.889 1.667.082 4.32.542 5.954.681 2.426 1.517 4.756 2.026 7.23.63 3.072-2.69 3.091-4.872 3.578l-6.535 1.46 1.341.773-2.653-12.262c-.338-1.557-.17-5.566-2.532-5.266-2.001.258-3.973.878-5.935 1.339-3.33.78-5.006-.497-5.997-3.732-.28-.92-1.271-3.537.26-4.017 1.268-.395 2.741-.365 4.053-.615 1.862-.358 3.81-.526 5.576-1.265 2.188-.911.907-3.38.524-5.15-.95-4.38-1.9-8.764-2.848-13.146l-.76 1.362 6.332-1.413c2.34-.521 5.127-2.004 6.099 1.02.742 2.312.904 4.968 1.193 7.373.25 2.07.435 4.85 2.11 6.307 1.715 1.492 4.683.137 6.389-.639 2.987-1.356 4.14-3.658 5.835-6.393 2.244-3.623 4.408-7.235 6.434-10.983 3.75-6.942 13.262-6.034 19.931-7.43l-1.23-1.626c-3.654 5.42-7.658 10.58-11.214 16.077-1.462 2.261-8.185 10.924-4.624 13.591 1.133.85 2.219-1.073 1.1-1.911" mask="url(#b)"/>
        <path fill="#FFF" d="M1345.112 56.277c.147.111.294-1.084.444-1.537.423-1.284 1.095-2.495 1.734-3.674 1.582-2.918 3.423-5.697 5.27-8.445 2.96-4.4 6.21-8.59 9.171-12.985.582-.864-.371-1.806-1.231-1.626-5.799 1.215-13.27.724-18.179 4.585-2.628 2.068-3.75 5.432-5.401 8.248-1.309 2.23-2.728 4.4-4.089 6.598-1.147 1.852-2.008 3.785-3.872 4.965-1.29.817-2.817 1.438-4.338 1.58-1.756.169-1.913-3.578-2.06-4.701-.299-2.265-.581-4.517-.99-6.764-.368-2.029-1.147-4.002-3.176-4.726-1.39-.499-3.509.431-4.832.727l-7.387 1.647c-.602.135-.884.797-.761 1.362l2.846 13.149c.032.143.556 2.61.628 2.579-.475.2-1.005.3-1.503.42-1.037.25-2.094.408-3.142.585-1.765.298-4.58.155-6.046 1.384-1.828 1.538-.88 4.11-.349 6.075.56 2.063 1.527 3.952 3.343 5.115 1.716 1.098 3.998.478 5.821.05 1.128-.264 2.253-.547 3.381-.814.473-.111.949-.212 1.426-.308.11-.019.223-.04.333-.057-.747.194-.855.677-.323 1.445l3.137 14.49c.132.613.785.899 1.34.774 3.674-.822 8.076-1.15 11.462-2.843 1.824-.912 1.734-3.222 1.466-4.918-.392-2.477-1.314-4.838-2.026-7.229-.385-1.3-.737-2.636-.754-4-.024-1.605 2.98-1.84 4.008-1.919 3.741-.282 7.065 3.063 10.016 5.006 3.632 2.39 7.262 5.336 11.153 7.254 2.112 1.04 5.056-.145 7.108-.771 3.855-1.176 7.923-1.83 11.853-2.707.954-.214 1.028-1.547.26-2.024-8.633-5.362-17.281-10.9-25.942-16.109-1.212-.73-2.3 1.172-1.1 1.911.066.042.132.082.2.12 1.219.717 2.317-1.196 1.1-1.912-.067-.038-.134-.079-.2-.119l-1.1 1.911c8.4 5.056 17.374 10.79 25.942 16.11l.26-2.022c-3.939.878-7.976 1.574-11.851 2.705-1.565.458-3.08.97-4.722 1.043-1.905.083-4.533-2.48-6.065-3.487l-11.59-7.63c-2.1-1.385-4.13-1.693-6.616-1.357-1.792.24-3.699.936-4.603 2.63-.889 1.667.082 4.32.542 5.955.681 2.425 1.517 4.755 2.026 7.23.63 3.071-2.69 3.09-4.872 3.578-2.178.486-4.356.972-6.535 1.46l1.341.772-2.653-12.261c-.338-1.558-.17-5.567-2.532-5.266-2.001.257-3.973.877-5.935 1.338-3.33.781-5.006-.496-5.997-3.732-.28-.92-1.271-3.537.26-4.016 1.268-.396 2.741-.365 4.053-.615 1.862-.359 3.81-.527 5.576-1.265 2.188-.912.907-3.381.524-5.15-.95-4.38-1.9-8.764-2.848-13.146l-.76 1.361 6.332-1.413c2.34-.52 5.127-2.003 6.099 1.02.742 2.312.904 4.968 1.193 7.374.25 2.07.435 4.85 2.11 6.306 1.715 1.492 4.683.137 6.389-.639 2.987-1.355 4.14-3.658 5.835-6.393 2.244-3.623 4.408-7.234 6.434-10.983 3.75-6.942 13.262-6.034 19.931-7.43l-1.23-1.625c-3.654 5.42-7.658 10.58-11.214 16.076-1.462 2.262-8.185 10.925-4.624 13.592 1.133.85 2.219-1.074 1.1-1.912" mask="url(#b)" transform="rotate(12 1334.25 57.217)"/>
        <path fill="#FFF" d="M111.028 78.616c.01.016 1.606-1.655 1.996-2.013 1.394-1.29 2.92-2.444 4.437-3.583 2.276-1.709 4.657-3.27 6.934-4.972.842-.629.517-1.756-.513-1.885-4.403-.554-8.854-2.222-12.946.267-1.87 1.138-3.448 2.809-5.001 4.32-.833.814-1.836 2.142-2.965 2.549-.549.198-2.954.73-3.023-.238-.192-2.735 1.502-5.34.69-8.113-.82-2.791-6.124-1.953-8.172-2.098-.596-.042-.962.495-1.018 1.012-.34 3.177-.68 6.355-1.018 9.533.338-.339.678-.676 1.017-1.013l-7.096-.753c-.586-.062-.972.51-1.018 1.014-.181 2.059-.176 4.088 1.236 5.725 1.415 1.64 4.273 1.748 6.244 1.967l-1.017-1.012-1.02 9.531c-.063.599.517.948 1.017 1.013 2.242.29 6.504 1.888 8.066-.679.741-1.22.729-2.51.746-3.891.013-1.108.025-2.222.192-3.321.243-1.596 2.942-.508 3.665.142 1.964 1.77 3.485 3.681 4.982 5.87 1.012 1.48 1.942 3.393 3.625 4.21 3.004 1.454 6.897.729 10.115.99.967.079 1.234-1.12.72-1.727-2.311-2.732-4.53-5.554-7.049-8.098a64.793 64.793 0 0 1-2.685-2.855c-.601-.687-.817-1.547-1.374-2.18-.866-.982-2.298.455-1.438 1.433.025.028.05.055.073.083.867.983 2.3-.455 1.439-1.432a5.525 5.525 0 0 0-.074-.085c-.866-.981-2.298.456-1.438 1.434-.475-.54-.268-.439-.102.043.148.431.429.803.695 1.167.797 1.095 1.764 2.072 2.701 3.044 2.745 2.845 5.26 5.858 7.814 8.876l.718-1.726c-3.407-.277-8.349.868-10.609-2.214-2.215-3.019-4.65-8.249-8.574-9.408-3.19-.942-5.018.046-5.34 3.268-.13 1.304.528 4.996-1.063 5.629-1.63.65-4.12-.38-5.805-.598.34.336.68.675 1.018 1.012l1.019-9.53c.063-.593-.514-.957-1.017-1.013-1.48-.165-3.048-.304-4.376-1.032-1.535-.84-1.193-3.225-1.069-4.636l-1.017 1.011 7.096.753c.593.062.964-.512 1.017-1.012l1.019-9.533-1.017 1.013c1.837.128 4.223-.343 5.899.54 1.154.61.153 3.45-.002 4.515-.324 2.236-1.237 4.878 1.64 5.597 4.006 1 6.634-2.676 9.132-5.036 2.076-1.963 4.02-3.426 6.971-3.426 2.605.001 5.2.798 7.777 1.122l-.513-1.886c-2.958 2.21-6.04 4.247-8.957 6.515-1.39 1.08-6.61 4.442-5.14 6.821.684 1.111 2.445.096 1.756-1.021M1404.78 92.151c.012.017 1.737-1.777 2.158-2.162 1.507-1.385 3.156-2.625 4.797-3.849 2.46-1.835 5.035-3.512 7.496-5.34.91-.675.56-1.886-.554-2.025-4.76-.595-9.573-2.386-13.996.287-2.022 1.223-3.728 3.017-5.407 4.641-.9.874-1.984 2.3-3.205 2.737-.593.213-3.194.783-3.268-.255-.208-2.937 1.623-5.736.745-8.714-.886-2.998-6.62-2.098-8.834-2.253-.644-.045-1.04.531-1.1 1.086l-1.101 10.239 1.1-1.088-7.672-.808c-.634-.067-1.051.547-1.1 1.088-.196 2.212-.19 4.392 1.336 6.15 1.53 1.762 4.62 1.877 6.75 2.113-.366-.363-.733-.726-1.1-1.087l-1.101 10.236c-.07.644.558 1.019 1.099 1.088 2.423.311 7.031 2.029 8.72-.729.801-1.31.787-2.695.806-4.18.014-1.19.027-2.385.207-3.566.263-1.714 3.181-.546 3.962.153 2.124 1.902 3.768 3.954 5.386 6.304 1.095 1.59 2.1 3.645 3.92 4.522 3.247 1.562 7.456.783 10.935 1.064 1.046.084 1.333-1.203.777-1.855-2.497-2.935-4.896-5.966-7.62-8.699a69.786 69.786 0 0 1-2.903-3.066c-.65-.738-.883-1.662-1.484-2.342-.936-1.054-2.485.49-1.555 1.54l.08.089c.936 1.056 2.485-.489 1.554-1.538a5.97 5.97 0 0 0-.08-.091c-.935-1.054-2.484.49-1.554 1.54-.514-.58-.29-.471-.11.046.16.463.463.863.75 1.253.862 1.176 1.908 2.226 2.92 3.27 2.968 3.056 5.686 6.292 8.448 9.534.258-.62.517-1.237.777-1.855-3.684-.297-9.026.933-11.47-2.377-2.394-3.243-5.027-8.86-9.269-10.105-3.448-1.012-5.424.049-5.773 3.51-.14 1.4.57 5.366-1.149 6.046-1.762.698-4.454-.408-6.275-.643l1.1 1.087 1.101-10.236c.07-.636-.556-1.028-1.099-1.087-1.6-.178-3.296-.327-4.731-1.109-1.66-.901-1.29-3.464-1.155-4.98l-1.1 1.087c2.557.269 5.115.54 7.671.808.642.067 1.043-.55 1.1-1.087l1.102-10.239c-.367.364-.734.725-1.1 1.089 1.986.137 4.566-.37 6.377.58 1.248.655.166 3.705-.001 4.849-.351 2.401-1.338 5.24 1.772 6.011 4.33 1.074 7.172-2.874 9.873-5.409 2.244-2.108 4.346-3.68 7.536-3.68 2.817.002 5.621.858 8.408 1.205l-.555-2.025c-3.198 2.375-6.53 4.561-9.684 6.997-1.503 1.161-7.146 4.771-5.557 7.327.74 1.193 2.644.102 1.9-1.097M93.815 114.177c.243.415.021.282.428-.215.37-.45.813-.847 1.238-1.245.937-.876 1.95-1.676 2.958-2.47 1.55-1.224 3.174-2.352 4.728-3.571.778-.61.05-1.637-.721-1.716-2.917-.29-5.885-1.2-8.675.083-.871.402-7.023 7.244-7.683 5.467-.693-1.866.782-4.156-.619-5.914-1.203-1.506-3.762-1.172-5.47-1.284-.585-.036-.98.488-1.02 1.006-.047.604-.152 5.75-.707 5.813-.872.102-1.967-.284-2.85-.383-1.182-.13-2.315.754-2.297 1.962.064 4.033 2.465 4.355 6.041 4.538l-1.02-1.004-.514 6.736c-.045.592.503.943 1.021 1.003 1.487.171 4.65 1.183 5.816-.272.685-.857.654-1.66.66-2.743.004-.604-.02-1.205-.01-1.81.03-2.009 2.154-1.217 3.073-.425 1.255 1.08 2.195 2.535 3.148 3.868.497.693 1.091 1.83 1.894 2.249 2.377 1.236 5.266.677 7.845.786.927.038 1.301-1.105.722-1.716-1.534-1.618-3.248-3.077-4.836-4.644-.922-.91-1.845-1.848-2.62-2.884-.35-.472-.345-1.066-.743-1.475-.915-.935-2.357.487-1.445 1.421l.055.056c.913.935 2.356-.487 1.443-1.422l-.053-.055c-.915-.935-2.357.487-1.445 1.421-.829-.848.164.679.425 1.068.705 1.048 1.638 1.966 2.52 2.869 1.698 1.738 3.583 3.303 5.254 5.065.241-.57.482-1.14.723-1.714-1.337-.055-2.676.023-4.014.001-2.003-.03-2.84-.48-3.962-2.042-1.543-2.149-3.124-4.662-5.707-5.672-1.917-.751-3.889.668-4.241 2.465-.139.702.36 3.871-.626 3.999-1.273.164-2.615-.257-3.876-.402.34.334.68.668 1.02 1.005.172-2.246.344-4.491.514-6.736.043-.568-.498-.977-1.02-1.004-1.378-.07-3.656.272-3.934-1.615-.22-1.5 2.434-.412 3.453-.532 2.93-.343 2.193-5.925 2.334-7.775L80 105.322c1.136.074 2.316.038 3.434.267 1.184.246.584 2.978.544 3.81-.066 1.367.336 3.207 2.043 3.313 2.562.162 4.51-1.569 6.069-3.338 1.433-1.626 2.549-2.949 4.906-3.022 1.817-.057 3.645.439 5.45.618-.242-.572-.482-1.144-.722-1.715-2.152 1.687-4.391 3.25-6.494 5-1.127.934-4.24 3.12-3.178 4.935.657 1.122 2.422.11 1.763-1.013" mask="url(#b)"/>
        <path fill="#FFF" d="M1381.223 122.618c.26.437.023.297.459-.225.398-.475.873-.893 1.33-1.312 1.006-.921 2.095-1.764 3.177-2.6 1.664-1.288 3.41-2.475 5.078-3.759.836-.641.053-1.723-.774-1.806-3.133-.305-6.321-1.263-9.318.088-.936.423-7.543 7.625-8.252 5.755-.744-1.964.84-4.375-.664-6.225-1.293-1.586-4.041-1.234-5.876-1.352-.628-.039-1.053.514-1.096 1.059-.05.635-.162 6.051-.76 6.119-.935.107-2.112-.299-3.06-.403-1.27-.137-2.487.793-2.467 2.065.068 4.245 2.648 4.584 6.489 4.777l-1.096-1.057-.552 7.09c-.049.623.54.993 1.097 1.056 1.597.18 4.993 1.245 6.246-.286.736-.902.703-1.748.71-2.888.003-.636-.022-1.269-.012-1.905.032-2.114 2.314-1.28 3.3-.447 1.35 1.137 2.358 2.668 3.382 4.07.534.731 1.173 1.928 2.034 2.368 2.554 1.301 5.657.714 8.427.828.995.04 1.397-1.164.775-1.806-1.648-1.703-3.488-3.24-5.194-4.89-.99-.958-1.981-1.944-2.814-3.035-.377-.496-.37-1.122-.799-1.553-.981-.983-2.53.513-1.55 1.497l.058.058c.98.985 2.53-.513 1.55-1.497l-.058-.058c-.981-.983-2.53.513-1.55 1.497-.891-.893.175.714.455 1.124.758 1.103 1.76 2.07 2.706 3.02 1.825 1.83 3.849 3.477 5.645 5.332l.776-1.805c-1.436-.058-2.875.025-4.311.001-2.152-.031-3.051-.505-4.256-2.15-1.658-2.261-3.356-4.907-6.13-5.97-2.059-.79-4.177.704-4.556 2.595-.148.74.387 4.075-.671 4.21-1.368.172-2.809-.271-4.163-.424l1.096 1.058c.184-2.364.368-4.728.55-7.09.048-.598-.534-1.028-1.095-1.058-1.48-.074-3.926.287-4.225-1.7-.237-1.578 2.614-.433 3.71-.56 3.147-.36 2.354-6.236 2.506-8.183l-1.097 1.057c1.221.077 2.488.039 3.69.28 1.272.259.627 3.136.584 4.01-.07 1.44.36 3.376 2.194 3.489 2.752.17 4.845-1.652 6.519-3.514 1.539-1.712 2.737-3.104 5.27-3.182 1.95-.06 3.914.462 5.853.65-.26-.6-.518-1.203-.776-1.804-2.31 1.776-4.716 3.421-6.975 5.263-1.21.984-4.554 3.284-3.413 5.195.706 1.181 2.601.116 1.894-1.067" mask="url(#b)" transform="rotate(11 1375.313 122.422)"/>
        <path fill="#FFF" d="M168.782 67.756c.523-.098-.337-1.09-.615-1.665-.583-1.202-1.027-2.474-1.478-3.73-.657-1.83-1.199-3.7-1.848-5.533-.26-.732-1.435-1.093-1.831-.24-1.186 2.558-3.124 5.13-2.792 8.084.363 3.228 3.72 5.344 3.01 8.821-.04.194-5.113-1.353-6.016-1.175-1.822.359-2.462 3.367-3.04 4.737-.156.372.092.97.461 1.13l4.85 2.083c1.13.485-.55 2.554-.709 3.11-.325 1.143-.07 2.305 1.194 2.719 3.811 1.244 4.868-.987 6.17-4.198l-1.472.598 6.183 2.659c.469.2 1.112.172 1.37-.358.69-1.42 2.639-3.98 1.672-5.657-.555-.962-1.505-1.191-2.52-1.543-.699-.242-1.385-.433-2.053-.759-2.059-1.008 1.004-2.701 1.52-2.965 2.006-1.023 5.346-.966 7.001-2.514 1.906-1.78 2.299-4.687 3.217-7.01.36-.916-.775-1.438-1.472-1.129-2.016.894-3.938 2.009-5.922 2.97-1.155.56-2.327 1.089-3.554 1.468-.576.178-1.085-.012-1.636.23-1.18.516-.16 2.238 1.012 1.724l.07-.03c1.181-.518.16-2.239-1.01-1.727-.025.01-.048.021-.072.032-1.18.517-.16 2.24 1.012 1.725-1.152.503.745.078 1.157-.026 1.206-.31 2.376-.898 3.502-1.418 2.182-1.01 4.256-2.249 6.452-3.222-.49-.376-.98-.752-1.472-1.127-.48 1.216-.835 2.481-1.283 3.712-.649 1.78-1.36 2.41-3.117 2.924-2.374.69-4.959 1.314-6.845 3.002-1.299 1.163-1.485 3.778.03 4.83 1.08.748 2.386 1.049 3.615 1.475 1.309.453-.705 3.35-1.033 4.026.457-.12.914-.239 1.37-.36-2.06-.885-4.122-1.77-6.184-2.658-.64-.276-1.209-.05-1.472.598-.39.963-.943 3.568-2.559 3.088-1.576-.469.032-2.177.396-3.287.92-2.807-4.822-4.034-6.396-4.711.152.376.306.752.46 1.128.398-.947.73-2.659 1.586-3.311.733-.558 2.865.75 3.571 1.032 1.322.525 3.085.657 3.735-.894.905-2.163.012-4.447-1.057-6.355-.93-1.663-2.053-3.137-1.648-5.146.375-1.868 1.653-3.601 2.448-5.316l-1.832-.24c.96 2.708 1.76 5.46 2.83 8.128.566 1.416 1.525 4.58 3.577 4.197 1.27-.237.73-2.162-.533-1.926" mask="url(#b)" transform="rotate(32 167.625 71.27)"/>
        <path fill="#FFF" d="M1443.504 82.111c.566-.106-.365-1.17-.667-1.789-.631-1.291-1.112-2.657-1.601-4.005-.711-1.966-1.298-3.976-2.002-5.944-.28-.786-1.555-1.174-1.984-.257-1.285 2.747-3.383 5.509-3.024 8.682.393 3.468 4.03 5.74 3.26 9.475-.042.208-5.539-1.453-6.517-1.262-1.974.385-2.667 3.616-3.292 5.088-.17.4.098 1.041.499 1.212 1.75.747 3.502 1.492 5.253 2.239 1.224.52-.595 2.743-.767 3.34-.353 1.228-.077 2.476 1.292 2.92 4.13 1.336 5.275-1.06 6.685-4.508l-1.595.641 6.699 2.856c.508.216 1.205.185 1.484-.384.747-1.525 2.858-4.275 1.811-6.077-.601-1.033-1.63-1.278-2.73-1.657-.757-.26-1.5-.464-2.223-.815-2.231-1.083 1.087-2.9 1.647-3.184 2.172-1.099 5.79-1.038 7.583-2.7 2.065-1.912 2.49-5.035 3.485-7.53.39-.983-.84-1.544-1.595-1.212-2.184.96-4.266 2.157-6.415 3.19-1.251.6-2.521 1.169-3.85 1.576-.625.191-1.175-.013-1.772.246-1.28.555-.173 2.405 1.096 1.853l.076-.033c1.28-.555.174-2.404-1.095-1.854l-.077.034c-1.28.555-.173 2.405 1.096 1.853-1.249.54.807.084 1.253-.028 1.307-.333 2.575-.964 3.794-1.523 2.364-1.084 4.61-2.415 6.99-3.46l-1.595-1.211c-.52 1.306-.904 2.665-1.39 3.987-.702 1.91-1.472 2.59-3.376 3.14-2.572.742-5.372 1.411-7.416 3.225-1.407 1.25-1.609 4.058.033 5.187 1.17.804 2.585 1.127 3.915 1.585 1.419.486-.763 3.598-1.118 4.324.494-.129.99-.256 1.484-.387-2.232-.95-4.466-1.9-6.699-2.855-.694-.296-1.31-.053-1.595.643-.422 1.034-1.022 3.832-2.772 3.317-1.707-.504.035-2.34.429-3.53.997-3.016-5.224-4.334-6.93-5.061l.498 1.212c.433-1.018.791-2.856 1.719-3.557.795-.599 3.104.807 3.869 1.109 1.432.563 3.342.705 4.046-.96.98-2.324.013-4.777-1.145-6.826-1.008-1.787-2.224-3.37-1.786-5.527.407-2.006 1.792-3.868 2.653-5.71-.662-.085-1.323-.17-1.985-.257 1.04 2.908 1.906 5.863 3.065 8.73.614 1.52 1.653 4.92 3.876 4.507 1.375-.255.791-2.322-.577-2.068M49.728 46.252c.332.569.031.382.586-.295.507-.619 1.113-1.164 1.697-1.71 1.284-1.2 2.672-2.294 4.05-3.383 2.126-1.68 4.354-3.224 6.483-4.894 1.066-.836.066-2.247-.99-2.35-3.995-.4-8.063-1.648-11.887.112-1.193.55-9.623 9.929-10.527 7.495-.95-2.557 1.07-5.698-.85-8.104-1.648-2.069-5.152-1.611-7.494-1.76-.804-.052-1.346.665-1.399 1.377-.065.828-.206 7.876-.97 7.967-1.195.14-2.694-.39-3.906-.524-1.62-.178-3.171 1.033-3.146 2.688.089 5.527 3.378 5.967 8.28 6.221l-1.4-1.378c-.267 3.512-2.692 10.786 2.826 10.84 3.789.04 7.075-.123 6.503-4.682-.11-.87-.22-1.71-.22-2.588.007-2.972 2.736-1.399 3.897-.412 1.716 1.454 3.091 3.32 4.455 5.081 3.596 4.643 8.56 4.32 13.965 4.634 1.28.074 1.772-1.525.99-2.35-2.01-2.124-4.239-4.06-6.32-6.117-1.217-1.202-2.396-2.436-3.499-3.74-.649-.765-.775-1.82-1.417-2.484-1.247-1.288-3.221.66-1.978 1.946l.074.077c1.245 1.29 3.22-.66 1.978-1.947l-.074-.076c-1.247-1.288-3.221.66-1.978 1.946-1.152-1.19.151.781.516 1.325.92 1.376 2.137 2.584 3.283 3.774 2.4 2.492 5.061 4.732 7.437 7.241.33-.783.66-1.567.988-2.35-2.594-.15-5.221-.032-7.765-.63-2.388-.568-3.682-2.552-5.085-4.309-1.762-2.213-4.68-6.284-7.967-6.26-3.291.021-4.464 3.162-4.248 5.968.064.812.228 1.616.284 2.432.09 1.276-3.188.771-3.82.767-1.344-.006-.13-6.728-.027-8.086.06-.778-.683-1.34-1.399-1.375-1.887-.1-5.008.372-5.39-2.217-.302-2.05 3.336-.563 4.731-.726 4.017-.471 3.006-8.123 3.2-10.656l-1.4 1.376c1.558.1 3.174.05 4.707.364 1.624.336.8 4.084.746 5.222-.089 1.877.46 4.397 2.798 4.543 3.512.22 6.183-2.15 8.318-4.578 1.965-2.228 3.494-4.04 6.725-4.138 2.488-.08 4.994.597 7.466.845-.33-.785-.66-1.567-.989-2.352-2.949 2.311-6.018 4.453-8.9 6.852-1.548 1.283-5.807 4.277-4.355 6.768.9 1.538 3.318.153 2.417-1.39M56.69 127.684c.242.415.023.278.427-.216.37-.452.813-.85 1.239-1.25.937-.876 1.95-1.676 2.956-2.472 1.55-1.227 3.176-2.356 4.73-3.577.778-.61.048-1.641-.722-1.717-2.915-.292-5.884-1.204-8.674.082-.871.403-7.023 7.256-7.682 5.477-.694-1.869.78-4.164-.621-5.922-1.202-1.512-3.76-1.177-5.469-1.286-.586-.038-.981.486-1.02 1.006-.047.606-.15 5.756-.707 5.822-.873.103-1.967-.285-2.851-.383-1.182-.13-2.314.755-2.296 1.965.065 4.039 2.465 4.36 6.042 4.546l-1.02-1.007c-.196 2.567-1.966 7.882 2.06 7.921 2.766.029 5.164-.09 4.746-3.421-.08-.637-.16-1.25-.16-1.892.005-2.171 1.996-1.021 2.844-.3 1.251 1.062 2.255 2.426 3.25 3.713 2.624 3.393 6.247 3.156 10.191 3.386.934.054 1.293-1.114.723-1.717-1.467-1.553-3.094-2.967-4.613-4.47a42.041 42.041 0 0 1-2.553-2.733c-.473-.56-.565-1.33-1.034-1.816-.91-.941-2.35.483-1.443 1.422.017.02.036.039.054.057.909.942 2.35-.483 1.443-1.424l-.054-.055c-.91-.941-2.35.483-1.443 1.422-.84-.87.11.571.377.969.671 1.005 1.559 1.887 2.395 2.758 1.751 1.82 3.693 3.457 5.427 5.291l.721-1.717c-1.893-.11-3.81-.024-5.666-.461-1.743-.415-2.687-1.865-3.71-3.149-1.287-1.617-3.417-4.592-5.815-4.575-2.401.016-3.258 2.311-3.1 4.362.047.593.166 1.18.208 1.777.066.932-2.327.564-2.787.56-.981-.004-.096-4.916-.02-5.908.043-.569-.499-.979-1.021-1.005-1.378-.073-3.655.272-3.933-1.62-.221-1.499 2.433-.412 3.452-.53 2.93-.345 2.193-5.937 2.334-7.788l-1.02 1.006c1.136.073 2.315.036 3.434.266 1.185.245.584 2.984.544 3.816-.065 1.372.336 3.213 2.042 3.32 2.563.16 4.512-1.571 6.07-3.345 1.434-1.629 2.55-2.953 4.907-3.025 1.816-.058 3.644.437 5.448.618l-.721-1.719c-2.152 1.69-4.392 3.254-6.494 5.007-1.13.937-4.238 3.125-3.179 4.946.656 1.124 2.421.112 1.764-1.015M337.793 98.39c.162.284.015.19.285-.148.247-.31.542-.582.826-.855.624-.6 1.3-1.147 1.97-1.691 1.035-.84 2.118-1.612 3.154-2.447.519-.418.032-1.124-.481-1.176-1.944-.2-3.923-.823-5.783.057-.58.275-4.682 4.964-5.122 3.747-.462-1.278.52-2.849-.413-4.052-.802-1.034-2.507-.805-3.646-.88-.391-.026-.654.333-.68.689-.032.414-.1 3.938-.472 3.983-.582.07-1.311-.195-1.9-.262-.788-.089-1.543.517-1.53 1.344.042 2.764 1.643 2.984 4.027 3.11l-.68-.688c-.13 1.756-1.31 5.393 1.374 5.42 1.843.02 3.442-.062 3.164-2.341-.054-.436-.108-.855-.108-1.295.004-1.485 1.331-.699 1.896-.205.835.727 1.504 1.66 2.168 2.54 1.749 2.322 4.164 2.16 6.794 2.317.622.037.862-.762.481-1.175-.978-1.062-2.062-2.03-3.075-3.058a28.484 28.484 0 0 1-1.702-1.87c-.315-.383-.377-.91-.69-1.242-.606-.645-1.566.33-.962.972a.997.997 0 0 0 .037.04c.605.644 1.566-.33.962-.974l-.036-.038c-.607-.645-1.567.33-.963.972-.56-.595.074.391.252.663.448.688 1.04 1.292 1.597 1.887 1.167 1.246 2.462 2.366 3.618 3.62l.48-1.174c-1.262-.075-2.54-.016-3.777-.316-1.162-.283-1.792-1.275-2.474-2.154-.857-1.106-2.277-3.142-3.876-3.13-1.601.01-2.172 1.581-2.066 2.984.03.406.11.808.138 1.216.044.638-1.551.386-1.858.384-.654-.003-.064-3.364-.014-4.043.03-.39-.332-.67-.68-.688-.918-.05-2.437.186-2.622-1.108-.147-1.026 1.622-.282 2.301-.363 1.954-.236 1.462-4.062 1.557-5.328l-.681.688c.758.05 1.544.025 2.29.182.79.168.389 2.042.363 2.61-.044.94.223 2.2 1.36 2.272 1.709.11 3.008-1.075 4.047-2.289.956-1.114 1.7-2.02 3.272-2.069 1.21-.04 2.43.299 3.632.423l-.481-1.176c-1.435 1.155-2.928 2.226-4.33 3.426-.753.641-2.825 2.138-2.118 3.384.437.769 1.613.076 1.175-.695M1438.695 43.983c.315.524.03.352.554-.273.48-.571 1.054-1.074 1.606-1.579 1.214-1.107 2.528-2.117 3.832-3.123 2.01-1.55 4.118-2.975 6.132-4.517 1.008-.771.062-2.074-.936-2.17-3.78-.368-7.628-1.52-11.245.105-1.129.508-9.103 9.164-9.958 6.918-.9-2.36 1.012-5.26-.805-7.481-1.558-1.91-4.873-1.487-7.089-1.625-.76-.047-1.272.615-1.322 1.272-.062.764-.195 7.27-.917 7.354-1.132.13-2.55-.36-3.696-.484-1.532-.165-3 .953-2.976 2.481.084 5.102 3.196 5.508 7.832 5.743l-1.323-1.272c-.254 3.242-2.547 9.956 2.672 10.006 3.584.036 6.693-.114 6.152-4.322-.104-.804-.209-1.578-.208-2.39.006-2.742 2.588-1.29 3.686-.38 1.623 1.343 2.924 3.066 4.214 4.691 3.402 4.286 8.098 3.987 13.21 4.278 1.211.068 1.677-1.408.938-2.17-1.903-1.96-4.01-3.747-5.98-5.646a53.684 53.684 0 0 1-3.31-3.452c-.613-.706-.732-1.68-1.34-2.293-1.18-1.19-3.047.61-1.871 1.796l.07.071c1.178 1.19 3.047-.61 1.871-1.797l-.07-.07c-1.18-1.19-3.047.61-1.871 1.796-1.09-1.1.143.721.489 1.223.87 1.27 2.02 2.385 3.105 3.484 2.27 2.3 4.787 4.368 7.034 6.684.313-.723.624-1.447.936-2.17-2.454-.138-4.94-.03-7.346-.582-2.259-.523-3.483-2.355-4.81-3.976-1.667-2.043-4.428-5.802-7.536-5.78-3.114.02-4.224 2.92-4.018 5.51.06.75.215 1.491.268 2.245.086 1.177-3.016.712-3.613.708-1.272-.006-.124-6.21-.026-7.464.056-.718-.646-1.236-1.323-1.27-1.786-.091-4.737.344-5.099-2.046-.286-1.893 3.155-.52 4.475-.67 3.8-.435 2.843-7.498 3.027-9.836l-1.324 1.27c1.474.093 3.003.046 4.453.336 1.535.31.756 3.77.705 4.82-.084 1.733.435 4.059 2.647 4.194 3.322.202 5.848-1.985 7.869-4.226 1.858-2.056 3.305-3.73 6.36-3.82 2.354-.073 4.724.551 7.063.78l-.935-2.17c-2.79 2.133-5.693 4.11-8.419 6.324-1.465 1.184-5.493 3.948-4.12 6.247.85 1.42 3.138.142 2.286-1.282M217.187 95.377c.03.364-.187.266.328-.01.537-.286 1.156-.45 1.735-.63 1.222-.382 2.48-.665 3.73-.946 1.921-.433 3.868-.75 5.79-1.175.873-.193.974-1.4.243-1.82-2.37-1.357-4.67-2.89-7.473-3.08-1.394-.094-2.872.295-4.21.612-1.336.317-4.724 1.911-5.74.41-.216-.318-.186.478.22-.42.287-.633.688-1.223 1.061-1.808.498-.78 1.213-1.522 1.46-2.424.5-1.82-2.574-3.618-3.888-4.152-1.726-.7-2.74.26-3.384 1.832-.479 1.168-.799 2.413-1.429 3.516-.5.874-2.207-1.351-2.628-1.635-1.616-1.09-3.517.586-3.811 2.245-.486 2.738 1.808 3.821 3.933 4.984l-.362-1.361c-.717 1.208-1.432 2.417-2.148 3.626-.352.597-1.17 1.634-1.118 2.425.099 1.476 1.38 1.814 2.564 2.442 2.593 1.37 4.082.577 4.944-2.042.223-.676.46-1.267.96-1.795 1.03-1.085 1.78.571 2.123 1.265.737 1.484 1.016 3.242 1.345 4.847.852 4.163 4.11 5.492 7.563 7.4.754.415 1.753-.27 1.488-1.124-.654-2.109-1.482-4.166-2.185-6.258a46.06 46.06 0 0 1-1.02-3.409c-.177-.7.053-1.253-.152-1.852-.413-1.211-2.37-.692-1.953.528l.024.074c.413 1.21 2.371.69 1.954-.53l-.025-.072c-.413-1.211-2.37-.692-1.953.528-.229-.667-.093-.598-.104.069-.007.355.048.696.1 1.048.181 1.225.62 2.433.999 3.612.733 2.279 1.652 4.504 2.361 6.789l1.489-1.124c-1.71-.943-3.573-1.692-5.054-2.979-1.192-1.035-1.44-2.565-1.74-4.007-.433-2.082-.993-5.367-2.982-6.64-1.981-1.264-3.975.216-4.802 2.062-.6 1.34-.46 2.876-2.358 1.89-.791-.412-1.675-.435-1.254-1.234.814-1.546 1.792-3.03 2.683-4.536.273-.46.119-1.097-.363-1.36-1.003-.55-2.223-1.026-2.937-1.953.023.029.048-2.462.81-1.772.282.257.527.565.788.84.998 1.048 2.374 1.48 3.735.887 1.36-.595 1.834-3.211 2.277-4.398.564-1.51 1.088-.953 2.24-.193 1.262.832 1.35 1.033.624 2.092-.806 1.177-2.267 2.91-2.102 4.437.173 1.592 2.037 2.171 3.393 2.227 2.469.1 5.007-1.27 7.443-1.575 2.826-.355 5.258 1.44 7.571 2.766l.242-1.82c-2.663.587-5.35 1.035-7.997 1.698-1.318.331-5.232.992-5.074 2.983.1 1.271 2.128 1.282 2.026 0" mask="url(#b)"/>
        <path fill="#FFF" d="M208.032 123.562c.023.291-.153.213.267-.008.437-.229.941-.36 1.413-.504.996-.306 2.02-.532 3.039-.757 1.566-.346 3.152-.6 4.718-.94.712-.154.794-1.12.198-1.455-1.931-1.087-3.805-2.312-6.089-2.465-1.136-.075-2.34.236-3.43.49-1.089.253-3.85 1.529-4.678.327-.176-.254-.15.383.18-.336.234-.506.56-.977.865-1.446.405-.624.988-1.218 1.19-1.939.407-1.456-2.099-2.894-3.169-3.322-1.406-.56-2.233.21-2.757 1.466-.39.935-.651 1.93-1.164 2.813-.408.7-1.799-1.081-2.142-1.308-1.316-.871-2.865.469-3.105 1.796-.396 2.19 1.473 3.057 3.204 3.987l-.295-1.089-1.75 2.901c-.287.478-.953 1.307-.91 1.94.08 1.18 1.124 1.451 2.088 1.953 2.113 1.097 3.326.462 4.03-1.633.18-.54.374-1.014.782-1.436.84-.868 1.45.457 1.729 1.012.6 1.187.827 2.593 1.096 3.878.694 3.33 3.349 4.394 6.162 5.92.615.331 1.429-.216 1.212-.9-.532-1.687-1.207-3.332-1.78-5.006-.308-.9-.594-1.806-.83-2.727-.145-.56.042-1.003-.124-1.482-.337-.969-1.932-.553-1.592.423l.02.059c.336.968 1.932.552 1.592-.425l-.02-.057c-.337-.969-1.932-.553-1.592.423-.186-.534-.075-.478-.085.055-.005.284.04.557.082.839.148.98.506 1.946.814 2.889.597 1.823 1.346 3.603 1.924 5.431l1.213-.899c-1.393-.754-2.911-1.353-4.118-2.383-.972-.828-1.173-2.052-1.417-3.206-.354-1.665-.81-4.294-2.43-5.311-1.615-1.012-3.24.172-3.914 1.649-.488 1.072-.374 2.3-1.92 1.511-.645-.328-1.365-.347-1.023-.986.664-1.238 1.46-2.424 2.186-3.63a.786.786 0 0 0-.296-1.087c-.817-.44-1.81-.821-2.392-1.563.019.024.04-1.97.66-1.417.23.205.43.452.642.672.813.838 1.934 1.184 3.043.71 1.108-.476 1.494-2.57 1.856-3.52.46-1.207.886-.761 1.825-.154 1.028.666 1.099.827.508 1.674-.657.942-1.847 2.328-1.713 3.55.141 1.273 1.66 1.737 2.765 1.781 2.012.08 4.08-1.015 6.064-1.26 2.304-.283 4.285 1.153 6.17 2.213.066-.486.13-.97.197-1.455-2.17.469-4.36.827-6.516 1.357-1.074.266-4.263.794-4.134 2.387.081 1.017 1.733 1.025 1.65 0" mask="url(#b)" transform="rotate(-46 205.689 122.264)"/>
        <path fill="#FFF" d="M61.219 86.462c.024.292-.152.214.267-.007.438-.23.942-.36 1.413-.504.996-.306 2.02-.533 3.04-.757 1.565-.347 3.152-.6 4.718-.94.711-.154.793-1.12.197-1.455-1.93-1.087-3.804-2.313-6.088-2.466-1.137-.075-2.341.237-3.431.49-1.088.254-3.85 1.53-4.678.328-.175-.254-.15.383.18-.336.234-.506.56-.978.865-1.446.406-.624.988-1.218 1.19-1.94.408-1.455-2.098-2.894-3.168-3.32-1.406-.561-2.234.208-2.758 1.465-.39.934-.65 1.93-1.164 2.813-.407.699-1.798-1.081-2.142-1.309-1.316-.87-2.865.47-3.105 1.796-.396 2.191 1.473 3.058 3.205 3.988l-.295-1.089-1.75 2.901c-.287.478-.953 1.307-.91 1.94.08 1.18 1.124 1.451 2.088 1.953 2.113 1.097 3.326.462 4.029-1.633.181-.54.374-1.014.782-1.436.84-.868 1.45.457 1.73 1.012.6 1.187.827 2.593 1.095 3.877.695 3.33 3.35 4.394 6.163 5.92.614.332 1.428-.215 1.212-.899-.533-1.687-1.207-3.333-1.78-5.006-.309-.9-.594-1.806-.83-2.727-.145-.56.042-1.003-.125-1.482-.337-.97-1.931-.553-1.592.422l.02.06c.337.968 1.932.551 1.592-.425l-.02-.057c-.337-.97-1.931-.553-1.592.422-.186-.533-.075-.478-.084.055-.006.285.039.558.081.84.148.98.506 1.946.814 2.888.598 1.824 1.347 3.604 1.924 5.432l1.213-.9c-1.393-.754-2.91-1.353-4.117-2.383-.972-.827-1.174-2.051-1.418-3.205-.353-1.666-.81-4.294-2.43-5.312-1.614-1.012-3.24.173-3.913 1.65-.489 1.071-.374 2.3-1.921 1.51-.645-.328-1.365-.347-1.022-.985.663-1.238 1.46-2.425 2.186-3.63a.786.786 0 0 0-.296-1.087c-.817-.44-1.811-.822-2.393-1.563.02.023.04-1.97.66-1.417.23.205.43.452.642.671.813.84 1.935 1.185 3.043.71 1.109-.476 1.495-2.569 1.856-3.519.46-1.208.886-.761 1.825-.154 1.028.666 1.1.827.508 1.674-.657.942-1.846 2.328-1.712 3.55.14 1.273 1.66 1.736 2.764 1.781 2.012.08 4.08-1.016 6.065-1.26 2.303-.284 4.285 1.153 6.17 2.213l.196-1.456c-2.17.47-4.36.828-6.516 1.358-1.074.265-4.263.794-4.134 2.386.082 1.018 1.734 1.026 1.651 0" mask="url(#b)" transform="rotate(-46 58.876 85.165)"/>
        <path fill="#FFF" d="M1126.032 128.059c.023.29-.153.213.267-.008.437-.229.941-.36 1.413-.504.996-.306 2.02-.532 3.039-.757 1.566-.347 3.152-.6 4.718-.94.712-.154.794-1.12.198-1.455-1.93-1.087-3.805-2.312-6.089-2.465-1.136-.075-2.34.236-3.43.49-1.089.253-3.85 1.529-4.678.327-.176-.254-.15.383.18-.336.234-.506.56-.977.865-1.446.405-.624.988-1.218 1.19-1.94.407-1.455-2.099-2.893-3.169-3.32-1.406-.56-2.233.208-2.757 1.465-.39.934-.651 1.93-1.164 2.813-.408.699-1.799-1.081-2.142-1.309-1.316-.87-2.865.47-3.105 1.796-.396 2.191 1.473 3.058 3.204 3.988l-.295-1.089-1.75 2.901c-.287.478-.953 1.307-.91 1.94.08 1.18 1.124 1.451 2.088 1.953 2.113 1.097 3.326.462 4.03-1.633.18-.54.374-1.014.782-1.436.84-.868 1.45.457 1.729 1.012.6 1.187.827 2.593 1.096 3.878.694 3.33 3.349 4.393 6.162 5.92.615.331 1.429-.216 1.212-.9-.532-1.687-1.207-3.333-1.78-5.006-.308-.9-.594-1.806-.83-2.727-.145-.56.042-1.003-.124-1.482-.337-.969-1.932-.553-1.592.423l.02.058c.336.969 1.932.552 1.592-.424l-.02-.057c-.337-.969-1.932-.553-1.592.423-.186-.534-.075-.478-.085.055-.005.284.04.557.082.838.148.98.506 1.947.814 2.89.597 1.823 1.346 3.603 1.924 5.43l1.213-.898c-1.393-.754-2.911-1.354-4.118-2.383-.972-.828-1.173-2.052-1.417-3.206-.354-1.666-.81-4.294-2.43-5.311-1.615-1.013-3.24.172-3.914 1.649-.488 1.072-.374 2.3-1.92 1.511-.645-.329-1.365-.347-1.023-.986.664-1.238 1.46-2.424 2.186-3.63a.786.786 0 0 0-.295-1.087c-.818-.44-1.812-.821-2.393-1.563.019.023.04-1.97.66-1.417.23.205.43.452.642.672.813.838 1.934 1.184 3.043.709 1.108-.476 1.494-2.569 1.856-3.518.46-1.208.886-.762 1.825-.155 1.028.666 1.099.827.508 1.674-.657.942-1.847 2.328-1.713 3.55.141 1.273 1.66 1.736 2.765 1.781 2.012.08 4.08-1.016 6.064-1.26 2.304-.283 4.285 1.153 6.17 2.213.066-.486.13-.97.197-1.456-2.17.47-4.36.828-6.516 1.358-1.074.266-4.263.794-4.134 2.387.081 1.017 1.733 1.025 1.65 0" mask="url(#b)" transform="rotate(-46 1123.689 126.76)"/>
        <path fill="#FFF" d="M266.05 115.337c-.871-.784 5.503-8.468 6.153-9.271 2.442-3.022 5.087-5.876 7.536-8.89.479-.588.27-1.85-.722-1.727-4.703.58-10.19-.106-14.363 2.535-1.988 1.257-3.448 3.38-4.768 5.266-.92 1.317-1.753 2.694-2.601 4.053-.721 1.154-1.499 2.934-2.615 3.76-.858.636-1.98.924-3 1.172-2.178.526-2.007-1.954-2.077-3.375-.081-1.644-.13-3.324-.385-4.955-.199-1.271-.592-3.212-2.053-3.671-1.116-.35-2.305.012-3.432.17l-6.187.865c-.6.085-.783.758-.714 1.246.49 3.43.978 6.862 1.466 10.293.204 1.433 1.234.878-.374 1.146-1.024.17-2.059.288-3.09.415-2.99.365-5.836.06-5.246 3.951.562 3.682 2.131 6.443 6.281 5.858.845-.119 1.686-.263 2.529-.399.429-.07.86-.136 1.292-.194 1.24-.166.135-.037.18.285l1.611 11.32c.086.597.764.778 1.256.708 2.805-.39 6.557-.265 9.079-1.595 1.425-.75 1.208-2.72 1.032-4.006-.305-2.231-1.053-4.373-1.354-6.606-.447-3.332 4.218-2.12 5.923-1.262 3.192 1.606 5.867 4.205 8.555 6.504 1.531 1.312 3.04 2.918 5.145 3.154 4.341.489 8.574-1.28 12.797-1.952.968-.154.87-1.401.243-1.851-3.749-2.683-7.406-5.636-11.393-7.966-1.445-.844-2.888-1.688-4.283-2.617-1.127-.75-1.745-1.91-2.77-2.621-1.084-.752-2.09 1-1.03 1.748.046.035.094.067.142.1 1.09.74 2.108-1.016 1.03-1.75a3.578 3.578 0 0 1-.142-.098l-1.03 1.748c-.604-.419.048.28.226.492.413.487.875.883 1.375 1.28 1.377 1.095 2.923 1.984 4.437 2.874 4.335 2.553 8.324 5.635 12.408 8.559l.244-1.85c-3.898.62-10.39 3.736-13.884 1.03-4.11-3.18-8.438-8.594-13.812-9.607-3.722-.703-6.67.75-6.14 4.688.27 2.02.932 3.96 1.25 5.97.352 2.23-.852 2.6-2.829 2.877-1.92.268-3.842.538-5.762.805.418.237.836.472 1.256.708l-1.318-9.263c-.195-1.37.148-3.782-1.715-3.893-1.356-.08-2.883.382-4.21.596-1.106.18-2.33.427-3.3-.38-.886-.737-1.069-2.286-1.26-3.342-.416-2.307 1.904-1.823 3.552-2.025 1.465-.178 2.957-.324 4.395-.657 1.6-.369.827-2.334.672-3.42l-1.465-10.293-.713 1.245 5.156-.721c.81-.114 3.196-.806 3.665.37.227.57.297 1.25.367 1.85.21 1.795.235 3.606.362 5.408.102 1.456.313 3.264 1.762 3.994 1.397.704 3.538-.02 4.845-.578 2.013-.86 2.82-2.11 3.989-3.916 1.671-2.58 3.19-5.251 5.138-7.641 3.919-4.81 10.088-3.826 15.655-4.514l-.721-1.728c-3.05 3.752-6.337 7.303-9.311 11.123-1.234 1.583-6.882 7.65-4.379 9.901.973.873 2.421-.554 1.443-1.433M321.798 120.44c.361.411.898-.952 1.153-1.338.5-.756 1.059-1.471 1.612-2.188.824-1.068 1.712-2.087 2.538-3.152.61-.783-.392-1.56-1.15-1.447-1.859.273-4.433.138-5.952 1.414-1.81 1.524-1.936 4.148-4.067 5.334-.653.365-.947-2.13-1.065-2.497a2.704 2.704 0 0 0-.958-1.348c-1.198-.898-3.046-.218-4.355.03-.562.107-.827.72-.712 1.212.176.745.406 1.479.61 2.219.386 1.404.62 2.005-1.072 1.825-1.62-.174-2.283.952-2.13 2.366.178 1.643 1.384 2.418 2.975 2.48 1.402.054 1.31-.495 1.621 1.045.184.908.268 1.832.418 2.745.062.388.575.776.981.723 1.527-.194 3.006-.16 4.263-1.123 1.51-1.158-1.028-3.765.218-4.562 1.555-.994 4.66 2.878 6.084 3.503 1.814.796 4.314-.39 6.09-.78.927-.201.917-1.346.243-1.799-1.263-.851-2.419-1.832-3.655-2.716-1.248-.895-2.704-1.351-3.946-2.13-1.106-.693-2.126 1.013-1.028 1.7l.05.032c1.106.692 2.125-1.014 1.028-1.702l-.05-.03c-1.106-.693-2.126 1.013-1.028 1.7 1.023.642 2.238.96 3.282 1.655 1.491.994 2.831 2.189 4.32 3.192l.243-1.8c-.979.213-1.938.503-2.912.737-1.705.406-2.374-.198-3.587-1.182-1.427-1.158-3.076-2.533-5.042-2.48-1.08.028-2.37 1.073-2.466 2.135-.063.707.131 1.36.323 2.039.472 1.677-1.252 1.493-2.43 1.64.327.243.655.484.983.726-.262-1.606-.345-3.259-1.035-4.758-.2-.437-.736-.739-1.22-.739-.563 0-1.192.206-1.748.26-.896.084-1.845-1.013-.434-.862 4.553.484 2.593-4.13 2.016-6.583l-.712 1.211c.506-.095 2.327-.737 2.712-.235.584.762.517 2.128.845 3.023.41 1.117 1.41 1.373 2.504 1.163 1.874-.362 2.935-2.09 3.67-3.598.723-1.483 1.307-2.4 3.08-2.82 1.16-.273 2.406-.292 3.588-.467-.384-.483-.768-.963-1.15-1.447-1.309 1.682-6.958 6.834-4.987 9.068.855.966 2.288-.434 1.44-1.395M297.63 100.585c-.536-.191.438-7.615.535-8.877.055-.722-.865-.987-1.323-.557-1.304 1.228-2.993 2.51-3.645 4.262-.819 2.193-.394 4.494-.792 6.75-.48 2.71-2.446-1.496-3.301-1.912-1.335-.65-2.567.401-3.559 1.266-.888.775-1.252 1.654-.554 2.67.404.589 1.095 1.01 1.656 1.43 1.853 1.383.27 1.735-.65 2.667-.841.85-.244 2.181.597 2.795 1.963 1.432 3.356.075 4.846-1.402h-1.096c.762.827 3.297 4.877 4.862 3.449 1.315-1.2 3.022-2.627 1.664-4.37-.516-.663-3.404-2.377-1.027-2.973 1.286-.322 2.809-.068 4.109.06 3.157.305 4.86-1.74 6.951-3.804.482-.478.125-1.352-.548-1.342-1.68.024-3.36.222-5.04.297-1.359.06-2.713-.467-3.948-.436-.998.025-1.001 1.595 0 1.568h.057c.998-.025 1-1.595 0-1.57l-.057.002c-.998.025-1.001 1.595 0 1.568.412-.008 2.35.464 3.275.455 1.908-.012 3.806-.286 5.713-.314l-.548-1.34c-1.58 1.562-2.799 3.272-5.236 3.398-.865.044-1.792-.165-2.659-.207-1.468-.075-3.295-.03-4.34 1.167-.908 1.041-.15 2.5.61 3.341.738.818 2.32.901 1.056 2.275-1.395 1.517-2.762-1.208-3.798-2.336-.29-.315-.802-.291-1.096 0-.643.637-4.28 1.334-2.736.556.5-.254.896-.496 1.32-.857.517-.44.85-1.6.424-2.206-.52-.74-3.504-2.606-2.71-3.432 1.83-1.897 2.47.179 3.812 1.462 1.713 1.637 3.247-.387 3.55-2.102.298-1.684.05-3.419.358-5.117.356-1.97 2.217-3.328 3.575-4.606-.44-.186-.88-.37-1.323-.555-.154 2.006-1.965 9.48.604 10.39.946.334 1.35-1.182.413-1.513M394.623 111.932c-1.79-1.9 5.996-7.784 7.234-8.806 4.95-4.076 9.505-8.618 14.187-12.987.452-.422.105-1.185-.5-1.185h-8.892c-2.583 0-5.276-.229-7.83.236-1.405.256-2.576 1.064-3.62 1.982-2.016 1.774-3.841 3.8-5.741 5.693l-6.258 6.236c-1.272 1.268-2.302 2.074-4.156 2.228-1.2.101-2.59.134-3.779-.078-1.385-.25-.329-7.082-.306-8.1.053-2.367.182-5.46-1.379-7.437-1.131-1.436-4.507-.937-6.044-.925a70.342 70.342 0 0 0-4.49.174c-.71.051-1.882.003-2.49.45-.468.343-.367.806-.367 1.353V104.32c0 1.472-.661 1.071-1.831 1.032-1.478-.05-2.966 0-4.445 0h-4.445c-.525 0-1.162.23-1.434.703-.708 1.226-.313 2.71-.198 4.036.154 1.794.302 3.386 1.436 4.883.856 1.132 2.31 1.87 3.743 1.931 1.339.058 2.684.023 4.024.023h2.096c.918 0 1.097-.354 1.162.602.16 2.37-.182 4.891-.244 7.267-.062 2.355-.52 5.545.448 7.778.307.709.85.712 1.546.746 1.44.071 2.874.214 4.314.276 2.335.1 5.891.336 7.649-1.534 1.014-1.081.588-3.042.588-4.34 0-2.331-.02-4.613-.234-6.934-.177-1.923-.42-3.886 2.125-3.987 2.154-.086 4.249.132 5.912 1.568 3.804 3.283 7.205 7.18 10.765 10.72 1.316 1.312 2.544 2.883 4.25 3.714 1.407.686 3.095.757 4.634.76 1.783.003 3.558-.24 5.34-.263 2.7-.037 5.404 0 8.104 0 .607 0 .947-.762.5-1.186l-12.842-12.126c-1.883-1.778-3.695-3.715-5.704-5.352-.576-.47-1.164-.923-1.73-1.407-.517-.442-.787-1.012-1.264-1.452-.664-.61-1.66.363-.999.983l.166.153c.668.606 1.67-.373 1-.982a3.86 3.86 0 0 1-.167-.154c-.333.328-.667.654-.999.983.826.76 1.554 1.713 2.493 2.46 2.009 1.598 3.801 3.483 5.665 5.24l13.382 12.637.5-1.186c-2.845 0-5.691-.03-8.535.006-2.15.028-4.27.34-6.425.212-2.914-.171-4.444-2.104-6.37-4.02a31780.85 31780.85 0 0 0-6.832-6.798c-1.539-1.532-3.04-3.463-4.868-4.678-1.708-1.137-3.507-1.122-5.5-1.215-1.466-.068-2.806.2-3.685 1.415-.878 1.215-.374 3.534-.241 4.874.22 2.23.146 4.47.147 6.708 0 .852.31 2.15-.335 2.835-.492.523-1.406.663-2.08.792-2.916.56-6.01.025-8.945-.121-.402-.02-.006.201-.087-.04-.067-.2-.096-.415-.132-.622-.109-.627-.12-1.277-.147-1.913-.068-1.64-.028-3.283.015-4.923.063-2.383.372-4.866.21-7.242-.085-1.267-.618-1.643-1.85-1.643h-4.193c-1.556 0-3.073.155-4.457-.66-1.946-1.15-1.803-3.654-2.013-5.551-.05-.465-.492-2.49.296-2.588 1.668-.206 3.503 0 5.186 0 1.384 0 2.773-.03 4.157.016.631.022 1.208.152 1.831 0 1.59-.385.959-3.577.959-4.577v-8.56c0-.37.105-3.159-.243-3.052.534-.164 1.137-.17 1.689-.215 2.809-.228 5.755-.354 8.563-.063 2.428.25 1.96 5.213 1.936 6.863-.02 1.454-.119 2.908-.223 4.359-.075 1.061-.315 2.325-.046 3.375.279 1.084 1 1.683 2.142 1.788 1.885.177 4.402.361 6.156-.486 1.275-.619 2.157-1.64 3.145-2.624l4.172-4.158c2.427-2.418 4.792-4.921 7.307-7.253 2.135-1.978 4.725-1.81 7.486-1.81h11.857l-.5-1.186c-5.222 4.874-10.413 9.736-15.845 14.379-1.82 1.554-8.3 6.489-5.576 9.378.62.658 1.617-.327 1-.982M488.227 111.546c-1.598-.45 1.53-12.702 1.864-14.11 1.125-4.757 2.572-9.433 3.704-14.185.198-.83-.704-1.647-1.48-1.15-4.811 3.1-10.802 5.116-14.251 9.945-1.745 2.444-1.523 6.031-2.014 8.865-.348 2.01-.792 4.01-1.188 6.016-.367 1.859-.44 4.219-1.393 5.873-.704 1.223-1.86 2.296-2.985 3.117-1.807 1.317-2.716-.477-3.573-1.919-1.168-1.967-2.18-4.033-3.334-6.014-.982-1.685-2.296-3.406-4.389-3.43-1.43-.016-2.904 1.459-4 2.185l-5.846 3.876c-.44.29-.675.91-.36 1.39l5.258 8.062c.78 1.194 1.558 2.389 2.337 3.584.659 1.009-.061 1.274-.935 1.95-2.307 1.792-4.941 3.09-7.39 4.663-.448.288-.664.91-.36 1.39 1.702 2.698 3.129 5.865 6.418 6.81 1.658.478 3.408-.296 4.85-1.043.947-.49 1.814-1.163 2.673-1.792l1.227-.924.573-.42c-.508-.45-.634-.538-.379-.258 3.231 3.756 5.625 8.464 8.32 12.62.288.443.904.679 1.38.363 2.888-1.914 5.936-3.701 8.656-5.854 1.807-1.43.9-3.805-.064-5.386-1.063-1.747-2.402-3.292-3.66-4.896-.836-1.062-1.721-2.217-2.223-3.487-.567-1.435 1.788-2.55 2.747-3.032 3.095-1.556 7.08.214 10.236.892 3.812.818 7.838 2.157 11.719 2.495 2.4.208 4.392-1.549 6.176-2.935 2.947-2.293 6.248-4.207 9.357-6.267.666-.442.678-1.685-.241-1.858-9.201-1.723-18.48-3.531-27.643-5.173-1.27-.228-1.814 1.727-.535 1.959.07.013.14.026.211.036 1.271.225 1.815-1.733.537-1.958l-.213-.037-.535 1.959c9.171 1.643 18.44 3.45 27.642 5.173l-.24-1.856c-2.965 1.965-5.987 3.862-8.893 5.917-1.097.773-2.108 1.64-3.246 2.358-1.946 1.231-4.206.234-6.274-.209l-12.492-2.681c-2.539-.546-4.17-.607-6.584.432-1.638.703-3.104 1.917-3.75 3.608-.622 1.62 1.034 3.677 1.872 4.853 1.39 1.95 2.97 3.73 4.291 5.733 1.772 2.684-.653 3.674-2.702 5.033l-5.168 3.427c.461.12.92.242 1.38.365-2.7-4.162-5.243-8.467-8.19-12.458-1.64-2.219-3.167-.132-4.957 1.185-2.07 1.521-4.646 3.176-7.028 1.289-1.569-1.241-2.458-3.346-3.508-5.007l-.362 1.39c3.041-1.955 6.716-3.484 9.164-6.231 1.329-1.49.228-2.636-.7-4.06l-7.012-10.75-.362 1.39c1.67-1.105 3.34-2.215 5.01-3.322 1.94-1.285 3.968-3.509 5.815-1.046 1.338 1.78 2.337 3.937 3.371 5.907.912 1.737 1.996 3.905 3.947 4.607 1.808.65 3.992-1.532 5.093-2.645 2.148-2.166 2.434-4.47 3.012-7.401.761-3.854 1.457-7.67 1.988-11.56.993-7.266 9.377-9.599 14.735-13.05l-1.48-1.15c-1.397 5.864-3.178 11.622-4.463 17.519-.504 2.316-3.525 12.201.302 13.276 1.255.354 1.786-1.606.537-1.958M1013.602 111.546c-1.598-.45 1.53-12.702 1.864-14.11 1.125-4.757 2.572-9.433 3.704-14.185.198-.83-.704-1.647-1.48-1.15-4.811 3.1-10.802 5.116-14.251 9.945-1.745 2.444-1.523 6.031-2.014 8.865-.348 2.01-.792 4.01-1.188 6.016-.367 1.859-.44 4.219-1.393 5.873-.704 1.223-1.86 2.296-2.985 3.117-1.807 1.317-2.716-.477-3.573-1.919-1.168-1.967-2.18-4.033-3.334-6.014-.982-1.685-2.296-3.406-4.389-3.43-1.43-.016-2.904 1.459-4 2.185l-5.846 3.876c-.44.29-.675.91-.36 1.39l5.258 8.062c.78 1.194 1.558 2.389 2.337 3.584.659 1.009-.061 1.274-.935 1.95-2.307 1.792-4.941 3.09-7.39 4.663-.448.288-.664.91-.36 1.39 1.702 2.698 3.129 5.865 6.418 6.81 1.658.478 3.408-.296 4.85-1.043.947-.49 1.814-1.163 2.673-1.792l1.227-.924.573-.42c-.508-.45-.634-.538-.379-.258 3.231 3.756 5.625 8.464 8.32 12.62.288.443.904.679 1.38.363 2.888-1.914 5.936-3.701 8.656-5.854 1.807-1.43.9-3.805-.064-5.386-1.064-1.747-2.402-3.292-3.66-4.896-.836-1.062-1.721-2.217-2.223-3.487-.567-1.435 1.788-2.55 2.746-3.032 3.096-1.556 7.08.214 10.237.892 3.812.818 7.838 2.157 11.719 2.495 2.4.208 4.392-1.549 6.176-2.935 2.947-2.293 6.248-4.207 9.357-6.267.666-.442.678-1.685-.241-1.858-9.201-1.723-18.48-3.531-27.643-5.173-1.27-.228-1.814 1.727-.535 1.959.07.013.14.026.211.036 1.271.225 1.815-1.733.537-1.958l-.213-.037-.535 1.959c9.171 1.643 18.44 3.45 27.642 5.173l-.24-1.856c-2.965 1.965-5.987 3.862-8.893 5.917-1.097.773-2.108 1.64-3.246 2.358-1.946 1.231-4.206.234-6.274-.209l-12.492-2.681c-2.539-.546-4.17-.607-6.584.432-1.638.703-3.104 1.917-3.75 3.608-.622 1.62 1.034 3.677 1.872 4.853 1.39 1.95 2.97 3.73 4.291 5.733 1.772 2.684-.653 3.674-2.702 5.033a13232.81 13232.81 0 0 1-5.168 3.427c.461.12.92.242 1.38.365-2.7-4.162-5.243-8.467-8.19-12.458-1.64-2.219-3.167-.132-4.957 1.185-2.07 1.521-4.646 3.176-7.028 1.289-1.569-1.241-2.458-3.346-3.508-5.007l-.362 1.39c3.041-1.955 6.716-3.484 9.164-6.231 1.329-1.49.228-2.636-.7-4.06l-7.012-10.75-.362 1.39c1.67-1.105 3.34-2.215 5.01-3.322 1.94-1.285 3.968-3.509 5.815-1.046 1.338 1.78 2.337 3.937 3.371 5.907.912 1.737 1.996 3.905 3.947 4.607 1.808.65 3.992-1.532 5.093-2.645 2.148-2.166 2.434-4.47 3.012-7.401.761-3.854 1.457-7.67 1.988-11.56.993-7.266 9.377-9.599 14.735-13.05l-1.48-1.15c-1.397 5.864-3.178 11.622-4.463 17.519-.504 2.316-3.525 12.201.302 13.276 1.255.354 1.786-1.606.537-1.958M559.639 99.41c-.862-1.437 9.97-8.018 11.173-8.78 4.134-2.616 8.443-4.954 12.578-7.563.692-.436.672-1.658-.244-1.839-5.759-1.138-11.985-4.156-17.935-2.619-2.984.77-5.447 3.676-7.9 5.358l-5.896 4.05c-1.559 1.07-2.731 2.048-4.637 2.28-1.26.157-2.563.1-3.794-.192-1.798-.426-.773-3.094-.466-4.277.551-2.126 1.194-4.217 1.676-6.361.399-1.778.553-3.832-.923-5.158-1.074-.961-3.05-.936-4.38-1.179-2.321-.428-4.642-.854-6.964-1.277-.508-.094-1.147.13-1.255.7-.59 3.132-1.18 6.263-1.772 9.393l-.788 4.174c-.244 1.285-.017.895-1.334.84-3.159-.131-6.243-1.23-9.323-1.838-.516-.101-1.14.139-1.257.704-.715 3.469-1.941 6.968.503 10.026.933 1.167 2.74 1.666 4.116 2.018.82.209 1.674.317 2.511.427.488.065.976.127 1.464.183 1.635.2.948.006.965-.324-.257 4.914-1.78 9.922-2.704 14.75-.097.501.133 1.131.712 1.238 3.45.633 7.395 1.974 10.912 1.78 1.909-.107 2.74-1.875 3.136-3.461.521-2.09.61-4.266.818-6.398.127-1.302.319-2.587.718-3.837.52-1.629 2.995-.856 4.151-.504 3.59 1.09 5.533 5.754 7.505 8.623 2.124 3.093 4.062 6.55 6.534 9.38 1.323 1.517 4.145 1.585 5.987 1.788 3.821.415 7.629 1.323 11.41 2.015.785.144 1.726-.688 1.152-1.476-3.457-4.761-6.798-9.612-10.533-14.166-1.468-1.79-2.921-3.592-4.284-5.463-.489-.67-.955-1.36-1.36-2.084-.165-.295-.078-.671-.402-1.105-.767-1.033-2.535-.043-1.762 1.016.042.058.085.115.129.172.777 1.027 2.55.026 1.763-1.015a7.848 7.848 0 0 1-.13-.173l-1.762 1.016c-.175-.234-.097-.756-.016-.074.029.257.087.445.187.68.269.643.654 1.224 1.04 1.802 1.26 1.88 2.716 3.643 4.138 5.403 3.932 4.87 7.553 9.943 11.229 15.005l1.153-1.478c-3.594-.658-7.21-1.516-10.839-1.96-1.356-.167-2.708-.288-4.043-.595-2.113-.489-3.077-2.787-4.203-4.424l-7.251-10.558c-1.47-2.139-2.607-3.346-5.1-4.27-1.58-.587-4.021-.965-5.465.15-1.42 1.102-1.631 3.196-1.837 4.844-.3 2.395-.422 4.783-.896 7.152-.568 2.838-3.257 1.792-5.378 1.404-2.052-.375-4.106-.752-6.158-1.13l.713 1.238c.91-4.748 1.984-9.48 2.658-14.27.326-2.323-.584-2.416-2.887-2.703-2.254-.28-4.884-.459-6.648-2.039-2.057-1.844-.433-5.857.024-8.069-.419.233-.838.466-1.256.701 3.58.71 7.34 2.168 11.038 1.902 2.01-.144 2.01-1.675 2.327-3.352.789-4.173 1.576-8.348 2.364-12.522-.419.235-.837.47-1.255.702l5.968 1.097c1.922.352 5.09.17 5.068 2.668-.02 2.122-.93 4.514-1.534 6.545-.519 1.744-1.578 4.511-.673 6.302.944 1.869 3.518 1.974 5.365 1.979 2.884.008 4.55-1.037 6.865-2.627 3.13-2.15 6.331-4.21 9.275-6.603 3.437-2.798 6.256-3.29 10.585-2.503 3.482.631 6.829 1.833 10.298 2.518l-.244-1.837c-5.1 3.219-10.408 6.097-15.451 9.416-1.974 1.301-11.073 6.274-9.032 9.678.669 1.116 2.433.104 1.763-1.015M1082.764 97.161c-.862-1.437 9.97-8.017 11.173-8.78 4.134-2.615 8.443-4.953 12.578-7.562.692-.436.672-1.658-.244-1.839-5.759-1.139-11.985-4.157-17.935-2.62-2.984.77-5.447 3.676-7.9 5.359l-5.896 4.05c-1.56 1.07-2.731 2.047-4.637 2.28-1.26.157-2.563.099-3.794-.193-1.798-.426-.773-3.094-.466-4.277.551-2.126 1.194-4.217 1.676-6.36.399-1.778.553-3.833-.923-5.158-1.074-.961-3.05-.936-4.38-1.18-2.321-.427-4.642-.853-6.964-1.277-.508-.094-1.147.131-1.255.701-.59 3.132-1.18 6.263-1.772 9.393l-.788 4.174c-.244 1.284-.017.895-1.334.84-3.159-.132-6.243-1.23-9.323-1.838-.516-.102-1.14.139-1.257.703-.715 3.47-1.941 6.969.503 10.026.933 1.168 2.74 1.666 4.116 2.018.82.21 1.674.318 2.511.427.488.066.976.127 1.464.184 1.635.2.948.005.965-.324-.257 4.914-1.78 9.922-2.704 14.75-.097.501.133 1.13.712 1.238 3.45.632 7.395 1.974 10.912 1.78 1.909-.107 2.74-1.875 3.136-3.461.521-2.09.61-4.267.818-6.398.127-1.302.319-2.588.718-3.837.52-1.63 2.995-.857 4.151-.505 3.59 1.091 5.533 5.754 7.505 8.624 2.124 3.093 4.062 6.55 6.534 9.38 1.323 1.516 4.145 1.585 5.987 1.787 3.821.416 7.629 1.323 11.41 2.015.785.144 1.726-.688 1.152-1.476-3.457-4.76-6.798-9.612-10.533-14.165-1.468-1.79-2.921-3.593-4.284-5.463-.489-.67-.955-1.361-1.36-2.084-.165-.296-.078-.672-.402-1.106-.767-1.032-2.535-.043-1.762 1.016.042.059.085.116.129.173.777 1.026 2.55.026 1.763-1.015a7.873 7.873 0 0 1-.13-.174c-.587.34-1.174.678-1.762 1.016-.175-.233-.097-.755-.016-.073.029.256.087.445.187.68.269.643.654 1.223 1.04 1.802 1.26 1.88 2.716 3.642 4.138 5.403 3.932 4.87 7.553 9.943 11.229 15.005l1.153-1.479c-3.594-.658-7.21-1.515-10.839-1.96-1.356-.166-2.708-.288-4.043-.595-2.113-.488-3.077-2.786-4.203-4.424-2.417-3.52-4.834-7.04-7.251-10.557-1.47-2.14-2.607-3.347-5.1-4.27-1.58-.588-4.021-.966-5.465.15-1.42 1.101-1.631 3.195-1.837 4.843-.3 2.395-.422 4.783-.896 7.153-.568 2.837-3.257 1.792-5.378 1.404l-6.158-1.13.713 1.238c.91-4.748 1.984-9.48 2.658-14.27.326-2.324-.584-2.416-2.887-2.703-2.254-.28-4.884-.459-6.648-2.039-2.057-1.844-.433-5.858.024-8.07-.419.233-.838.467-1.256.702 3.58.71 7.34 2.168 11.038 1.902 2.01-.144 2.01-1.676 2.327-3.352.789-4.173 1.576-8.348 2.364-12.522l-1.255.702 5.968 1.096c1.922.352 5.09.17 5.068 2.668-.02 2.122-.93 4.514-1.534 6.546-.519 1.743-1.578 4.51-.673 6.302.944 1.868 3.518 1.974 5.365 1.978 2.884.008 4.55-1.036 6.865-2.626 3.13-2.15 6.331-4.21 9.275-6.604 3.437-2.797 6.256-3.29 10.585-2.503 3.482.632 6.829 1.833 10.298 2.519l-.244-1.838c-5.1 3.22-10.408 6.098-15.451 9.417-1.974 1.301-11.073 6.274-9.032 9.678.669 1.115 2.433.103 1.763-1.015" mask="url(#b)"/>
        <path fill="#FFF" d="M433.405 111.578c.275.236.055.325.217-.233.173-.585.487-1.135.768-1.676.59-1.132 1.277-2.22 1.96-3.302 1.05-1.663 2.204-3.26 3.26-4.92.497-.778-.314-1.682-1.15-1.481-2.424.579-5.816.6-7.716 2.435-2.144 2.07-2.212 5.281-4.245 7.383-2.192 2.267-2.352-1.266-2.825-2.608-.248-.705-.714-1.666-1.43-2.034-1.743-.894-3.765.104-5.495.58-.539.148-.857.71-.713 1.24l1.112 4.104c.513 1.894-.248 1.817-1.851 2.086-1.21.203-2.802 1.028-2.34 2.532 1.22 3.98 3.709 3.612 7.21 2.598l-1.255-.703c.617 2.277.796 8.093 4.436 6.942 2.21-.7 5.062-1.575 3.715-4.42-.627-1.325-2.135-4.368.745-3.669 1.654.401 3.206 1.5 4.614 2.408 3.917 2.527 6.973 1.445 11.212.242.815-.232 1.046-1.427.243-1.843-1.892-.98-3.905-1.738-5.838-2.635-1.178-.545-2.336-1.135-3.437-1.822-.602-.374-.896-1.099-1.472-1.397-1.165-.601-2.196 1.14-1.03 1.742.023.01.047.023.07.034 1.164.6 2.195-1.14 1.029-1.74-.023-.012-.047-.023-.07-.036-1.164-.601-2.195 1.14-1.029 1.742-.924-.477.419.63.786.908.942.71 1.983 1.257 3.036 1.786 2.266 1.144 4.675 1.993 6.926 3.16.08-.615.162-1.23.244-1.844-2.29.65-4.606 1.725-7.034 1.302-1.37-.238-2.752-1.448-3.909-2.16-1.79-1.097-4.304-2.569-6.477-1.802-1.997.706-1.96 3.32-1.228 4.893.863 1.858 1.296 2.304-1.078 3.016-1.338.4-.993.171-1.376-1.238l-1.112-4.105a1.028 1.028 0 0 0-1.254-.704c-.99.286-3.584 1.536-4.17.079-.734-1.824 2.113-1.327 2.955-1.928 2.465-1.755.201-5.82-.407-8.064l-.712 1.24c1.132-.312 2.301-.792 3.479-.893 1.14-.1 1.502 2.785 1.743 3.551.547 1.752 1.776 2.88 3.64 2.125 2.426-.98 3.405-3.505 4.278-5.732 1.566-3.988 4.876-3.926 8.572-4.808l-1.152-1.48c-1.464 2.297-3.05 4.507-4.446 6.849-.707 1.183-2.993 4.4-1.44 5.726.99.844 2.438-.574 1.441-1.426M832.149 108.459c-1.4-1.474 1.653-4.561 2.532-5.544 2.028-2.267 4.354-4.271 6.673-6.232 6.626-5.598 12.761-11.766 19.048-17.74.489-.466.114-1.308-.54-1.308-6.077 0-12.174.158-18.243-.15-2.05-.104-4.034.014-5.92.867-1.036.47-1.82 1.434-2.595 2.221l-3.92 3.98c-3.946 4.006-7.703 8.23-11.698 12.178-1.703 1.681-3.522 2.817-5.937 2.945-1.695.09-3.429.339-5.104-.045-1.81-.413-.755-4.684-.756-6.043 0-3.162-.114-6.348.025-9.508.075-1.707.195-3.404-.649-4.953-.933-1.713-3.4-1.683-5.049-1.626-2.838.099-5.658.165-8.501.165-1.19 0-3.694-.682-4.233.849-.91 2.582-.44 5.965-.375 8.644.1 4.14.208 8.282.1 12.423-.006.218-7.753-.037-8.237-.043-1.606-.013-3.214-.005-4.818.077-.854.045-2.01.02-2.763.498-.887.562-.461 2.501-.467 3.365-.01 1.807.063 3.606.406 5.384.602 3.114 2.737 5.493 5.954 5.905 2.766.353 5.667.117 8.453.117 1.867 0 1.64.87 1.502 2.293-.165 1.698-.018 3.479-.018 5.184v9.609c0 1.446-.71 4.474 1.226 4.987.803.213 1.943-.074 2.765-.074h4.835c2.332 0 4.764.205 7.08-.135 2.817-.415 2.973-3.328 2.96-5.634-.017-2.55-.286-5.116-.46-7.657-.162-2.39-.347-4.956.287-7.292.41-1.508 1.41-1.261 2.765-1.31 2.242-.078 4.511-.157 6.54.957 1.786.98 3.164 3.013 4.576 4.444l5.046 5.113c3.312 3.357 6.578 6.766 9.906 10.104 1.062 1.068 2.182 1.41 3.65 1.41H859.801c.655 0 1.024-.84.539-1.306l-17.252-16.593c-2.437-2.344-4.782-4.914-7.4-7.054-.74-.604-1.485-1.2-2.202-1.834-.636-.56-.963-1.286-1.545-1.834-.718-.673-1.78.381-1.08 1.083.067.067.137.13.208.195.728.66 1.812-.419 1.08-1.082a6.386 6.386 0 0 1-.208-.196c-.36.36-.721.72-1.08 1.083.34.32.603.907.956 1.277.762.803 1.667 1.482 2.526 2.176 2.52 2.032 4.76 4.475 7.093 6.72l17.824 17.14.54-1.305h-19.35c-1.75 0-3.417.287-4.825-.96-.93-.825-1.744-1.836-2.618-2.72l-7.288-7.386c-2.172-2.202-4.398-4.363-6.502-6.63-1.698-1.83-3.287-3.45-5.763-4.081-2.165-.55-4.515-.235-6.719-.205-1.06.014-1.785.734-2.218 1.643-1.281 2.687-.771 6.361-.565 9.217.088 1.227.196 2.448.222 3.677.045 2.154 1.179 6.723-1.654 7.365-2.313.523-5.137.08-7.482.08h-4.835c-.47 0-.937.063-1.404.105-.457.04-.252-2.398-.252-2.688v-9.61c0-2.684.316-5.5.133-8.167-.123-1.787-1.789-1.639-3.145-1.639-2.96 0-6.287.432-9.178-.292-4.109-1.029-4.11-6.219-4.106-9.584 0-.366.138-2.317-.207-2.097.308-.196.924-.16 1.271-.191 1.666-.15 3.352-.13 5.023-.125 2.828.01 5.68.022 8.504.192 1.146.069 1.571-.646 1.692-1.676.332-2.823.063-5.931.01-8.776-.056-3.014-.214-6.024-.124-9.042.02-.686.053-1.376.146-2.055.14-1.016.336-.514 1.335-.514 3.165 0 6.342.1 9.5-.128 1.334-.095 3.115-.305 4.203.653.841.741.66 2.444.629 3.435-.095 2.95-.073 5.902-.072 8.853 0 2.416-.742 5.51.157 7.81.604 1.545 2.937 1.535 4.283 1.544 1.965.012 4.231-.021 6.06-.766 2.536-1.032 4.484-3.294 6.258-5.29 2.271-2.56 4.705-4.962 7.106-7.399l4.479-4.546c1.44-1.462 2.795-3.314 4.784-4.011 2.972-1.043 6.956-.185 10.055-.185h12.52c-.18-.435-.361-.87-.54-1.306-6.774 6.437-13.477 12.904-20.54 19.016-2.516 2.18-5.008 4.47-6.981 7.166-1.13 1.545-2.297 3.852-.733 5.5.68.718 1.758-.367 1.08-1.082M714.946 117.007c.195.058-.028-.693-.04-1.086-.027-.984.107-1.985.247-2.957.354-2.487.932-4.946 1.521-7.385.899-3.72 2.04-7.38 2.94-11.098.2-.825-.707-1.632-1.486-1.138-3.689 2.334-8.55 3.922-11.259 7.512-1.465 1.944-1.626 4.281-1.9 6.624-.199 1.696-.625 3.378-.959 5.05-.335 1.674-.408 3.869-1.184 5.395-.533 1.043-1.566 1.964-2.503 2.64-1.379 1-2.21-.804-2.774-1.769-.974-1.669-1.826-3.398-2.855-5.036-.73-1.165-1.99-2.6-3.532-2.355-1.122.178-1.991.925-2.922 1.536l-5.098 3.339c-.442.29-.678.903-.363 1.38a116167.958 116167.958 0 0 1 5.549 8.407c.629.951 1.31 1.065.44 1.867-1.875 1.729-4.37 2.8-6.514 4.153-.453.285-.665.901-.363 1.378 1.415 2.233 2.561 4.624 5.215 5.54 1.055.362 2.444.032 3.402-.428.93-.446 1.77-.975 2.614-1.568.87-.609 2.109-.927 1.178-1.74 1.407 1.228 2.414 3.423 3.43 4.967 1.157 1.755 2.289 3.53 3.442 5.29.289.441.907.675 1.385.362 2.405-1.576 4.975-3.03 7.198-4.853 1.032-.846.962-2.522.374-3.575-.849-1.524-1.91-2.86-3.005-4.21-.763-.94-1.482-1.9-2.085-2.95-.91-1.584 1.65-2.54 2.713-2.921 2.384-.856 6.208.76 8.621 1.272 2.91.618 5.966 1.61 8.937 1.798 1.598.099 3.278-1.414 4.432-2.3 2.456-1.884 5.188-3.468 7.778-5.165.67-.437.682-1.672-.241-1.842-7.492-1.386-15.031-2.872-22.505-4.163-1.276-.22-1.824 1.72-.538 1.944l.172.03c1.277.217 1.824-1.727.538-1.945-.057-.008-.115-.02-.172-.03-.18.649-.36 1.297-.538 1.945 7.472 1.29 15.013 2.777 22.504 4.164l-.241-1.843c-2.438 1.596-4.931 3.135-7.313 4.812-.707.497-1.375 1.049-2.087 1.543-1.666 1.158-3.263.576-5.103.188l-9.153-1.944c-2.293-.486-3.982-1-6.219-.197-2.968 1.067-4.707 3.277-3.048 6.17.92 1.601 2.257 2.973 3.378 4.431 1.39 1.811 1.24 3.536-.91 4.946l-4.509 2.954c.462.12.923.24 1.385.362-2.187-3.336-4.26-6.769-6.634-9.978-1.219-1.646-2.065-.835-3.571.286-1.669 1.244-3.818 3.024-5.957 1.843-1.434-.79-2.274-2.88-3.118-4.212l-.365 1.38c2.462-1.55 5.87-2.834 7.643-5.225.997-1.349-.04-2.34-.842-3.554l-5.55-8.406-.362 1.378c1.603-1.05 6.637-5.568 8.237-3.975 1.335 1.332 2.215 3.56 3.096 5.214.779 1.466 1.667 3.095 3.289 3.724 1.467.571 3.278-1.158 4.196-2.032 1.81-1.724 2.11-3.533 2.586-5.913.643-3.216 1.234-6.395 1.683-9.64.788-5.704 7.633-7.615 11.897-10.313-.495-.38-.99-.761-1.486-1.139-1.166 4.82-2.643 9.552-3.7 14.4-.446 2.043-2.807 9.619.446 10.607 1.253.379 1.783-1.569.538-1.946" mask="url(#b)"/>
        <path fill="#FFF" d="M1225.997 128.811c.21.063-.03-.752-.043-1.179-.03-1.067.116-2.154.266-3.209.383-2.698 1.007-5.366 1.644-8.012.97-4.037 2.202-8.008 3.175-12.043.214-.895-.764-1.771-1.606-1.235-3.983 2.533-9.234 4.256-12.16 8.151-1.582 2.11-1.755 4.646-2.052 7.187-.214 1.841-.675 3.666-1.035 5.48-.362 1.817-.44 4.199-1.28 5.854-.574 1.133-1.69 2.132-2.702 2.866-1.49 1.084-2.387-.872-2.996-1.92-1.052-1.81-1.972-3.687-3.084-5.465-.788-1.264-2.148-2.82-3.813-2.555-1.212.193-2.152 1.003-3.157 1.667l-5.506 3.623c-.476.315-.732.98-.392 1.497a125688.676 125688.676 0 0 1 5.993 9.123c.68 1.032 1.416 1.156.476 2.026-2.025 1.876-4.72 3.038-7.036 4.506-.489.31-.718.978-.392 1.496 1.529 2.422 2.767 5.017 5.633 6.01 1.14.394 2.639.036 3.674-.463 1.004-.485 1.911-1.059 2.823-1.703.94-.66 2.277-1.004 1.272-1.887 1.52 1.333 2.607 3.714 3.704 5.39 1.25 1.905 2.472 3.83 3.718 5.74.312.479.98.732 1.496.392 2.597-1.71 5.373-3.286 7.774-5.265 1.114-.918 1.038-2.737.404-3.88-.917-1.653-2.062-3.104-3.246-4.568-.824-1.02-1.6-2.06-2.252-3.2-.982-1.72 1.783-2.757 2.93-3.17 2.575-.93 6.705.824 9.311 1.38 3.142.67 6.443 1.747 9.652 1.95 1.726.108 3.54-1.533 4.787-2.495 2.652-2.045 5.603-3.763 8.4-5.604.723-.475.736-1.815-.26-1.999-8.092-1.505-16.235-3.117-24.306-4.518-1.378-.24-1.97 1.866-.581 2.11l.186.033c1.379.235 1.97-1.874.581-2.11l-.186-.033-.581 2.11c8.07 1.4 16.214 3.013 24.305 4.518-.087-.666-.175-1.333-.26-2-2.634 1.732-5.327 3.402-7.899 5.222-.764.54-1.485 1.138-2.254 1.674-1.8 1.257-3.524.625-5.511.204l-9.886-2.109c-2.475-.528-4.3-1.085-6.716-.214-3.205 1.158-5.083 3.556-3.291 6.695.993 1.738 2.437 3.226 3.647 4.808 1.503 1.965 1.34 3.838-.983 5.367l-4.869 3.205 1.496.393c-2.362-3.62-4.601-7.345-7.165-10.827-1.317-1.785-2.23-.906-3.857.31-1.802 1.35-4.123 3.281-6.433 2-1.55-.856-2.456-3.125-3.368-4.57-.132.499-.262.997-.393 1.498 2.658-1.683 6.34-3.075 8.253-5.67 1.078-1.464-.044-2.539-.908-3.857l-5.994-9.121-.392 1.495c1.731-1.139 7.168-6.042 8.896-4.313 1.442 1.445 2.393 3.862 3.343 5.657.842 1.592 1.801 3.36 3.553 4.042 1.584.62 3.54-1.257 4.531-2.205 1.955-1.872 2.279-3.834 2.793-6.416.695-3.49 1.333-6.94 1.818-10.46.851-6.19 8.243-8.264 12.85-11.192-.536-.412-1.07-.826-1.606-1.235-1.26 5.228-2.854 10.364-3.996 15.626-.481 2.216-3.032 10.436.482 11.508 1.353.412 1.926-1.702.581-2.11" mask="url(#b)" transform="rotate(20 1220.52 131.637)"/>
        <path fill="#FFF" d="M650.751 111.296c.246.504.157.164.625-.298.445-.44.96-.82 1.463-1.192 1.33-.978 2.749-1.845 4.16-2.706 2.06-1.256 4.198-2.388 6.26-3.64.714-.433.664-1.636-.247-1.826-3.297-.69-7.294-2.536-10.642-1.132-1.75.733-3.228 1.851-4.706 3.003-1.516 1.183-3.993 4.006-6.234 2.515-.246-.164 1.634-6.007 1.324-6.908-.89-2.585-4.713-2.2-6.945-2.53-.518-.079-1.153.117-1.268.696-.142.723-1.028 7.18-1.626 7.193-1.612.03-3.284-.657-4.843-.992-.505-.108-1.17.142-1.267.698-.833 4.759 1.242 6.484 5.873 7.38l-.719-1.228-1.59 8.04c-.103.514.14 1.104.719 1.23 2.368.508 5.466 2 7.445-.081.744-.782.791-1.995.893-2.994.086-.85.174-1.696.322-2.54.286-1.637 2.373-.798 3.13-.035 1.667 1.68 2.843 3.544 4.019 5.57.722 1.243 1.345 2.602 2.533 3.481 2.249 1.664 6.194 1.235 8.837 1.657.79.126 1.745-.671 1.164-1.468-1.757-2.406-3.415-4.908-5.362-7.177-.794-.923-1.583-1.85-2.32-2.819-.469-.616-.625-1.41-1.056-1.974-.779-1.024-2.569-.029-1.779 1.009.02.023.039.05.059.076.78 1.024 2.569.03 1.778-1.008-.019-.028-.038-.052-.058-.077-.779-1.024-2.569-.029-1.779 1.009-.35-.461.353.93.493 1.166.596 1.001 1.412 1.908 2.159 2.804 2.15 2.586 4.104 5.286 6.085 8l1.164-1.468c-2.571-.41-7.366.16-8.928-2.199-2.005-3.028-3.411-6.715-6.59-8.822-1.943-1.288-4.704-1.059-5.423 1.25-.398 1.276-.423 2.722-.557 4.041-.285 2.815-4.058 1.02-5.68.672l.718 1.228 1.59-8.042c.1-.502-.137-1.116-.719-1.228-1.26-.244-2.542-.467-3.68-1.074-1.361-.722-.96-2.673-.754-3.847l-1.268.698c2.074.445 4.295 1.347 6.441.954.976-.178 1.111-1.208 1.26-1.962.433-2.196.868-4.391 1.303-6.59l-1.267.698c1.572.234 3.17.248 4.716.636 1.578.395.456 2.744.173 3.755-.448 1.597-1.58 4.463.795 5.154 3.225.942 5.208-.75 7.545-2.631 1.874-1.507 3.886-3.272 6.433-3.399 2.504-.124 5.121 1.032 7.541 1.539l-.246-1.826c-2.877 1.746-5.851 3.325-8.678 5.155-1.474.955-5.669 3.157-4.567 5.414.567 1.164 2.343.15 1.778-1.008M1166.001 111.296c.246.504.157.164.625-.298.445-.44.96-.82 1.463-1.192 1.33-.978 2.749-1.845 4.16-2.706 2.06-1.256 4.198-2.388 6.26-3.64.714-.433.664-1.636-.247-1.826-3.297-.69-7.294-2.536-10.642-1.132-1.75.733-3.228 1.851-4.706 3.003-1.516 1.183-3.993 4.006-6.234 2.515-.246-.164 1.634-6.007 1.324-6.908-.89-2.585-4.713-2.2-6.945-2.53-.518-.079-1.153.117-1.268.696-.142.723-1.028 7.18-1.626 7.193-1.612.03-3.284-.657-4.843-.992-.505-.108-1.17.142-1.267.698-.833 4.759 1.242 6.484 5.873 7.38l-.719-1.228-1.59 8.04c-.103.514.14 1.104.719 1.23 2.368.508 5.466 2 7.445-.081.744-.782.791-1.995.893-2.994.086-.85.174-1.696.322-2.54.286-1.637 2.373-.798 3.13-.035 1.667 1.68 2.843 3.544 4.019 5.57.722 1.243 1.345 2.602 2.533 3.481 2.249 1.664 6.194 1.235 8.837 1.657.79.126 1.745-.671 1.164-1.468-1.757-2.406-3.415-4.908-5.362-7.177-.794-.923-1.583-1.85-2.32-2.819-.469-.616-.625-1.41-1.056-1.974-.779-1.024-2.569-.029-1.779 1.009.02.023.039.05.059.076.78 1.024 2.569.03 1.778-1.008-.019-.028-.038-.052-.058-.077-.779-1.024-2.569-.029-1.779 1.009-.35-.461.353.93.493 1.166.596 1.001 1.412 1.908 2.159 2.804 2.15 2.586 4.104 5.286 6.085 8l1.164-1.468c-2.571-.41-7.366.16-8.928-2.199-2.005-3.028-3.411-6.715-6.59-8.822-1.943-1.288-4.704-1.059-5.423 1.25-.398 1.276-.423 2.722-.557 4.041-.285 2.815-4.058 1.02-5.68.672l.718 1.228 1.59-8.042c.1-.502-.137-1.116-.719-1.228-1.26-.244-2.542-.467-3.68-1.074-1.361-.722-.96-2.673-.754-3.847l-1.268.698c2.074.445 4.295 1.347 6.441.954.976-.178 1.111-1.208 1.26-1.962.433-2.196.868-4.391 1.303-6.59l-1.267.698c1.572.234 3.17.248 4.716.636 1.578.395.456 2.744.173 3.755-.448 1.597-1.58 4.463.795 5.154 3.225.942 5.208-.75 7.545-2.631 1.874-1.507 3.886-3.272 6.433-3.399 2.504-.124 5.12 1.032 7.541 1.539l-.246-1.826c-2.877 1.746-5.851 3.325-8.678 5.155-1.474.955-5.669 3.157-4.567 5.414.567 1.164 2.343.15 1.778-1.008M692.596 88.737c-.29-.687 7.849-5.2 8.92-5.878.694-.438.667-1.649-.244-1.835-2.52-.52-5.647-1.9-8.17-.68-1.176.569-2.184 1.332-3.195 2.142-.581.465-1.143.954-1.715 1.428-.464.564-1.054.829-1.77.79-.959.116-1.179-.067-.658-.549.263-1.47 1.406-3.53.62-4.982-.964-1.78-3.744-1.498-5.456-1.715-.413-.052-.91.343-.982.737a7563 7563 0 0 0-1.093 6.04c.418-.235.835-.467 1.253-.701-1.573-.346-3.112-.985-4.737-.647-1.327.275-1.701 2.62-1.392 3.652.576 1.92 1.981 2.157 3.818 2.319.936.08.23 1.518.037 2.3-.23.926-.528 1.837-.732 2.768-.147.666.299 1.228.982 1.273 1.636.105 3.643 1.577 5.272.367 1.549-1.15.527-4.743 1.233-5.406.577-.541-.142-.294.284-.063.613.331 1.129.892 1.62 1.371.861.847 1.388 1.778 1.983 2.818.695 1.216 1.45 2.355 2.6 3.184.681.493 1.889.47 2.675.607l4.098.721c.776.138 1.733-.685 1.15-1.476-2.162-2.93-4.35-6.062-6.548-8.881-.79-1.014-2.56-.014-1.759 1.012l.044.057c.789 1.014 2.56.014 1.76-1.014a2.667 2.667 0 0 0-.045-.055c-.79-1.014-2.56-.014-1.759 1.012-.428-.546.247.636.36.824.396.673.948 1.288 1.441 1.89 1.644 2.018 3.202 4.074 4.747 6.17l1.15-1.476c-1.864-.328-5.503-.278-6.857-1.64-1.092-1.102-1.536-2.697-2.47-3.91-1.107-1.435-2.732-3.212-4.641-3.429-1.74-.196-1.857 2.503-1.985 3.626-.186 1.633.193 2.713-1.742 2.343-.87-.169-1.726-.605-2.611-.662l.982 1.272c.41-1.868 1.812-4.56 1.073-6.469-.367-.943-1.462-1.036-2.342-1.144-1.623-.2-2.531-2.362-.328-1.906.706.145 1.393.373 2.098.529.502.11 1.152-.143 1.253-.701.363-2.013.727-4.028 1.092-6.04l-.982.737c1.194.152 3.803-.243 3.562 1.396-.113.764-.36 1.531-.57 2.276-.335 1.186-.566 3.107 1.119 3.426 2.241.423 3.484-.308 5.146-1.688 1.32-1.096 2.612-2.322 4.272-2.892 1.812-.62 4.47.605 6.273.976l-.242-1.837c-2.205 1.394-4.475 2.668-6.627 4.144-1.035.711-3.915 2.37-3.23 4.002.496 1.18 2.467.662 1.965-.533M1199.218 91.58c-.312-.724 8.478-5.474 9.634-6.188.75-.461.72-1.736-.263-1.932-2.722-.547-6.099-2-8.825-.715-1.27.598-2.357 1.402-3.45 2.254-.627.49-1.234 1.005-1.851 1.504-.502.594-1.14.872-1.911.832-1.037.12-1.274-.071-.712-.578.284-1.549 1.518-3.717.67-5.245-1.04-1.873-4.044-1.577-5.893-1.806-.446-.054-.983.362-1.06.777-.395 2.119-.788 4.238-1.18 6.358.45-.248.901-.493 1.353-.739-1.7-.364-3.361-1.037-5.116-.68-1.434.289-1.838 2.757-1.504 3.843.622 2.022 2.14 2.272 4.124 2.441 1.01.085.248 1.599.04 2.42-.248.977-.571 1.935-.791 2.916-.158.7.323 1.293 1.06 1.34 1.768.11 3.935 1.66 5.694.386 1.673-1.21.57-4.993 1.332-5.69.623-.57-.154-.31.307-.067.661.348 1.219.94 1.748 1.443.931.891 1.5 1.872 2.143 2.967.75 1.28 1.566 2.478 2.809 3.35.735.52 2.039.495 2.888.64l4.425.76c.84.144 1.873-.723 1.243-1.555-2.335-3.085-4.699-6.38-7.072-9.348-.853-1.067-2.766-.015-1.9 1.065l.048.06c.852 1.067 2.764.015 1.9-1.067a2.824 2.824 0 0 0-.048-.058c-.853-1.067-2.766-.015-1.9 1.065-.462-.575.267.67.389.868.427.708 1.024 1.356 1.556 1.99 1.776 2.123 3.459 4.287 5.127 6.494.414-.52.828-1.035 1.243-1.554-2.015-.345-5.944-.293-7.406-1.727-1.18-1.16-1.66-2.839-2.669-4.115-1.195-1.51-2.95-3.382-5.012-3.61-1.878-.206-2.005 2.635-2.144 3.817-.2 1.719.209 2.856-1.88 2.466-.94-.177-1.865-.636-2.82-.697.352.447.706.894 1.06 1.34.442-1.967 1.957-4.801 1.159-6.81-.396-.993-1.579-1.09-2.529-1.204-1.753-.21-2.734-2.487-.355-2.006.763.152 1.505.392 2.266.556.542.117 1.244-.15 1.353-.738l1.18-6.358c-.353.258-.707.519-1.061.777 1.29.16 4.108-.256 3.847 1.47-.122.803-.39 1.61-.616 2.394-.362 1.25-.61 3.271 1.209 3.607 2.42.445 3.763-.325 5.558-1.777 1.425-1.153 2.821-2.444 4.614-3.044 1.956-.652 4.828.636 6.775 1.027l-.262-1.934c-2.381 1.468-4.833 2.809-7.157 4.363-1.118.748-4.229 2.494-3.488 4.212.535 1.243 2.664.697 2.121-.56M606.896 88.976c.372.222.134.054.245-.546.1-.542.279-1.07.447-1.59.52-1.622 1.22-3.187 1.913-4.74.97-2.17 2.074-4.278 3.045-6.45.316-.708-.218-1.868-1.143-1.499-2.973 1.192-6.292 1.81-8.691 4.09-2.616 2.485-1.502 6.961-3.807 9.62-.324.376-1.655 1.874-2.271 1.346-.63-.54-.974-1.816-1.286-2.554-.466-1.102-1.106-2.66-2.236-3.272-2.205-1.194-4.682.522-6.706 1.401-.541.234-.568.941-.363 1.395.552 1.223 1.224 2.394 1.827 3.59.848 1.68 2.074 3.658-.542 3.983-1.684.209-3.923.616-3.366 2.94.774 3.232 3.06 4.333 6.077 3.289.14-.046 1.631-.533 1.38-.754.638.562 1.024 1.858 1.332 2.605.553 1.344.987 2.733 1.521 4.085.19.48.688.926 1.245.713 1.84-.703 5.286-1.166 6.018-3.387.416-1.262-.213-2.288-.757-3.42-.385-.797-.848-1.553-1.163-2.384-.66-1.747 1.833-2.207 2.981-1.984 1.845.356 3.582 1.364 5.233 2.227 1.14.598 2.513 1.638 3.839 1.736 3.179.236 6.074-2.14 8.827-3.4.894-.41.466-1.579-.242-1.865-2.463-1.002-4.793-2.311-7.207-3.421a34.775 34.775 0 0 0-3.116-1.238c-1.064-.368-2.358-.27-3.365-.653-1.224-.465-1.747 1.51-.538 1.968.03.012.06.024.09.033 1.222.466 1.746-1.508.537-1.967l-.09-.034c-1.223-.465-1.746 1.51-.537 1.968.797.303 1.823.228 2.672.442 1.402.357 2.745.978 4.055 1.58 2.334 1.07 4.58 2.32 6.962 3.29l-.243-1.866c-1.471.675-2.864 1.513-4.318 2.225-1.986.971-3.272 1.039-5.202.025-2.571-1.348-5.907-3.602-8.958-3.186-2.223.303-3.89 2.449-3.33 4.662.269 1.062 2.7 4.115 1.498 5.031-1.184.903-2.821 1.13-4.185 1.65l1.245.713c-.938-2.373-1.525-5.308-3.157-7.323-.447-.553-1.045-.99-1.79-.785-.805.224-1.57.675-2.365.95-.716.284-1.436.216-2.163-.206-.371-.304-1.29-1.898-.316-2.114 1.52-.337 4.865-.398 4.722-2.845-.164-2.82-2.237-5.407-3.364-7.903-.12.466-.243.93-.363 1.397 1.301-.566 2.715-1.482 4.156-1.576 1.313-.085 2.225 3.216 2.615 4.086.985 2.2 2.607 2.906 4.65 1.548 2.8-1.863 3.282-4.825 3.995-7.89 1.072-4.606 5.313-5.074 9.098-6.591l-1.142-1.499c-1.315 2.94-2.818 5.787-4.051 8.768-.638 1.541-3.055 6.045-.874 7.348 1.126.672 2.143-1.092 1.022-1.762M1130.02 88.976c.373.222.135.054.246-.546.1-.542.279-1.07.447-1.59.52-1.622 1.22-3.187 1.913-4.74.97-2.17 2.074-4.278 3.045-6.45.316-.708-.218-1.868-1.143-1.499-2.973 1.192-6.292 1.81-8.691 4.09-2.616 2.485-1.502 6.961-3.807 9.62-.324.376-1.655 1.874-2.271 1.346-.63-.54-.974-1.816-1.286-2.554-.466-1.102-1.106-2.66-2.236-3.272-2.205-1.194-4.682.522-6.706 1.401-.541.234-.568.941-.363 1.395.552 1.223 1.224 2.394 1.827 3.59.848 1.68 2.074 3.658-.542 3.983-1.684.209-3.923.616-3.366 2.94.774 3.232 3.06 4.333 6.077 3.289.14-.046 1.631-.533 1.38-.754.638.562 1.024 1.858 1.332 2.605.553 1.344.987 2.733 1.521 4.085.19.48.688.926 1.245.713 1.84-.703 5.286-1.166 6.018-3.387.416-1.262-.213-2.288-.757-3.42-.385-.797-.848-1.553-1.163-2.384-.66-1.747 1.833-2.207 2.98-1.984 1.846.356 3.583 1.364 5.234 2.227 1.14.598 2.513 1.638 3.839 1.736 3.179.236 6.074-2.14 8.827-3.4.894-.41.466-1.579-.242-1.865-2.463-1.002-4.793-2.311-7.207-3.421a34.776 34.776 0 0 0-3.116-1.238c-1.064-.368-2.358-.27-3.365-.653-1.224-.465-1.747 1.51-.538 1.968.03.012.06.024.09.033 1.222.466 1.746-1.508.537-1.967l-.09-.034c-1.223-.465-1.746 1.51-.537 1.968.797.303 1.823.228 2.672.442 1.402.357 2.745.978 4.055 1.58 2.334 1.07 4.58 2.32 6.962 3.29l-.243-1.866c-1.471.675-2.864 1.513-4.318 2.225-1.986.971-3.272 1.039-5.202.025-2.571-1.348-5.907-3.602-8.958-3.186-2.223.303-3.89 2.449-3.33 4.662.269 1.062 2.7 4.115 1.498 5.031-1.184.903-2.821 1.13-4.185 1.65l1.245.713c-.938-2.373-1.525-5.308-3.157-7.323-.447-.553-1.045-.99-1.79-.785-.805.224-1.57.675-2.365.95-.716.284-1.436.216-2.163-.206-.371-.304-1.29-1.898-.316-2.114 1.52-.337 4.865-.398 4.722-2.845-.164-2.82-2.237-5.407-3.364-7.903-.12.466-.243.93-.363 1.397 1.301-.566 2.715-1.482 4.156-1.576 1.313-.085 2.225 3.216 2.615 4.086.985 2.2 2.607 2.906 4.65 1.548 2.8-1.863 3.282-4.825 3.995-7.89 1.072-4.606 5.313-5.074 9.098-6.591l-1.142-1.499c-1.315 2.94-2.818 5.787-4.051 8.768-.638 1.541-3.055 6.045-.874 7.348 1.126.672 2.143-1.092 1.022-1.762M749.253 92.896c.47.312.224.173.342-.415.09-.444.24-.88.376-1.312.44-1.38 1.027-2.714 1.607-4.036.847-1.93 1.811-3.803 2.662-5.728.342-.773-.233-2.022-1.22-1.628-2.647 1.062-5.494 1.655-7.65 3.663-2.309 2.153-1.364 6.145-3.313 8.505-1.852 2.244-2.446-.266-3.116-1.795-.43-.981-1.077-1.88-2.021-2.375-1.754-.922-4.146.728-5.698 1.416-.577.256-.61 1.023-.388 1.518.524 1.162 1.15 2.278 1.713 3.421.903 1.838 1.069 2.791-1.114 3.035-1.835.202-2.699 1.221-2.361 3.103.486 2.716 2.858 3.523 5.158 2.842 1.666-.49 1.404-.918 2.193.834.606 1.345 1.02 2.778 1.55 4.154.202.524.735 1.002 1.33.776 1.543-.586 4.297-.98 5.148-2.664.4-.793.501-1.528.132-2.37-.662-1.51-3.193-5.583.774-4.842 2.738.513 5.296 3.474 8.04 3.521 2.811.05 5.239-1.889 7.688-3.043.956-.452.5-1.71-.258-2.026-2.176-.912-4.241-2.083-6.38-3.074-1.804-.836-3.753-.956-5.53-1.621-1.314-.49-1.875 1.652-.576 2.137.026.012.052.021.079.03 1.313.49 1.874-1.653.574-2.137l-.078-.03c-1.313-.49-1.874 1.652-.575 2.137.667.25 1.473.182 2.177.35 1.258.295 2.46.873 3.63 1.415 2.048.951 4.02 2.058 6.104 2.93-.087-.675-.172-1.35-.258-2.026-3.058 1.442-5.231 3.52-8.549 1.736-2.06-1.11-5.315-3.273-7.79-2.547-1.856.545-3.074 2.197-2.782 4.15.137.918 2.337 3.713 1.395 4.437-.993.76-2.395.962-3.54 1.398.444.26.887.517 1.332.775-.829-2.15-1.402-4.542-2.714-6.45-.375-.545-.884-.927-1.551-.898-.736.032-1.46.552-2.14.812-1.166.445-3.699-1.431-1.794-1.642 6.378-.703 2.484-6.097.841-9.742-.13.505-.26 1.01-.388 1.515.832-.369 3.044-1.914 3.963-1.133 1.034.878 1.4 2.822 2.028 4.005.857 1.61 2.36 1.673 3.773.84 2.343-1.382 3.012-3.881 3.553-6.387.443-2.052 1.01-3.51 2.9-4.577 1.56-.882 3.41-1.277 5.064-1.939-.408-.54-.815-1.085-1.222-1.627-1.217 2.754-2.576 5.432-3.718 8.22-.62 1.519-2.401 5.039-.494 6.305 1.175.777 2.258-1.142 1.092-1.916M953.764 114.226c-.184.338-.126.385.173.143.399-.218.869-.341 1.301-.48 1.034-.333 2.104-.574 3.164-.816 1.653-.377 3.327-.655 4.982-1.02.903-.197.975-1.385.247-1.819-2.138-1.274-4.113-3.01-6.751-3.02-1.303-.005-2.646.542-3.844.96-.23.082-4.529 1.492-3.734.149.784-1.32 2.177-2.512 2.064-4.15-.113-1.67-2.85-2.387-4.068-2.987-.498-.244-1.12-.132-1.411.36-.239.399-2.16 4.12-2.598 3.924-.9-.406-1.7-1.02-2.54-1.522-.462-.277-1.155-.115-1.412.356-1.667 3.057-.645 4.728 2.28 6.397l-.37-1.362-2.86 4.803c-.286.485-.107 1.07.37 1.364 1.696 1.038 3.193 2.41 5.217 1.438 1.81-.87 2.078-6.463 4.009-1.555.8 2.035.418 4.677 1.918 6.392 1.228 1.403 3.542 1.942 5.172 2.77.778.396 1.78-.252 1.516-1.123-.952-3.15-1.864-6.445-2.882-9.526-.403-1.218-2.395-.698-1.99.53l.02.06c.403 1.22 2.396.698 1.99-.528-.006-.022-.014-.042-.02-.062-.403-1.218-2.395-.698-1.99.53-.24-.727-.039.31.003.498.18.825.462 1.619.748 2.414.787 2.185 1.458 4.39 2.132 6.613l1.516-1.126c-1.623-.823-4.635-1.449-5.104-3.363-.51-2.08-.51-5.198-2.177-6.843-.955-.942-2.721-2.073-3.958-.878-.574.553-.906 1.353-1.248 2.045-.971 1.979-2.393.873-3.83-.006.124.454.248.906.37 1.362.954-1.602 1.906-3.204 2.86-4.804a.989.989 0 0 0-.37-1.362c-1.761-1.006-2.639-1.657-1.54-3.673-.47.12-.941.238-1.411.359 1.132.677 2.507 1.923 3.906 1.981 2.08.09 3.225-3.706 4.054-5.1l-1.411.358c1.034.512 2.332.833 3.124 1.693.077.084-1.218 1.813-1.39 2.054-.884 1.228-1.48 2.238-.39 3.482 1.33 1.517 3.738.771 5.262.222 1.592-.574 3.332-1.376 5.068-1.054 1.652.308 3.255 1.814 4.659 2.65.082-.607.163-1.215.246-1.82-2.387.525-4.794.93-7.16 1.55-1.233.323-4.023.865-3.976 2.542.036 1.283 2.101 1.287 2.064 0M908.332 103.331c-.933-.76 4.835-8.669 5.513-9.632 2.173-3.087 4.547-6.023 6.726-9.1.57-.806-.365-1.656-1.15-1.508-6.13 1.155-12.504.837-15.9 6.984-1.387 2.508-2.756 5.015-4.428 7.346-.912 1.273-5.348 6.203-6.491 3.039-1.32-3.657.125-11.17-5.623-10.721-1.623.126-6.147.04-7.026 1.962-.675 1.477-.184 2.903.123 4.443l1.663 8.335.71-1.26c-1.97.355-9.564.265-9.448 3.53.154 4.327 3.137 6.984 7.263 6.689 1.114-.08 2.223-.31 3.317-.522-.246.047-.485-.946-.217-.07.113.37.198.748.289 1.122.558 2.296.972 4.63 1.407 6.953.164.88.13 2.877 1.024 3.405 1.12.66 3.1.196 4.28.04 2.575-.338 6.67-1.03 6.372-4.418-.165-1.863-.652-3.721-1.052-5.54-.213-.967-.436-1.931-.661-2.893l-.218-.911c-.102-.42-.353.115.55-.198 5.023-1.73 9.573 4.165 13.291 6.844 1.468 1.058 3.349 2.287 5.239 2.095 4.124-.417 8.323-1.674 12.388-2.501.91-.184.935-1.428.244-1.873-3.823-2.45-7.57-5.067-11.58-7.196-1.56-.827-3.11-1.676-4.606-2.616-.923-.58-1.497-1.554-2.347-2.074-1.126-.69-2.134 1.069-1.027 1.77.046.03.094.06.143.089 1.135.666 2.158-1.105 1.025-1.772l-.141-.087-1.027 1.77c-.65-.398-.143.01.137.327.403.455.874.813 1.357 1.173 1.534 1.147 3.288 2.03 4.969 2.93 4.169 2.24 8.083 4.902 12.07 7.457l.242-1.874-10.098 2.052c-1.526.31-2.456.54-3.869-.14-1.13-.547-2.158-1.333-3.16-2.085-2.929-2.194-6.573-6.6-10.422-6.71-1.92-.055-6.033.351-5.34 3.164a172.46 172.46 0 0 1 1.12 4.908c.295 1.359.913 3.077.751 4.483-.145 1.246-3.16 1.564-4.12 1.734-.824.146-1.66.21-2.494.248-.328.016-.655.007-.982-.008-.44-.02.461.866.338.208-.656-3.474-1.185-7.01-2.13-10.42-.22-.794-.613-1.7-1.602-1.5-2.04.407-4.619 1.195-6.59.166-.997-.518-1.44-1.77-1.77-2.76-.58-1.743.776-1.877 2.102-2.182 1.819-.417 3.692-.5 5.525-.83.572-.103.811-.756.71-1.262l-1.455-7.292c-.23-1.15-.532-2.323-.654-3.49-.103-.97 2.317-.965 2.764-1.005 1.224-.108 3.755-1.035 4.554.16.6.894.732 2.585.862 3.627.451 3.602.591 8.244 5.362 7.356 4.475-.83 7.51-7.39 9.452-10.915 1.466-2.662 2.7-4.581 5.756-5.636 3.077-1.062 6.443-1.07 9.621-1.67l-1.149-1.507c-2.736 3.866-5.708 7.547-8.364 11.473-1.057 1.561-6.016 7.744-3.557 9.748 1.011.823 2.46-.619 1.439-1.452M863.489 105.686c-.09-.11 2.01-3.103 2.41-3.657.814-1.125 1.694-2.2 2.518-3.319.405-.549-.261-1.09-.762-1.014-2.047.314-4.236.243-5.876 1.706-.642.57-1.001 1.564-1.347 2.322-.211.46-2.365 4.097-2.958 2.384-.422-1.215-.26-2.959-1.516-3.713-1.04-.623-2.616 0-3.674.212-.371.075-.55.506-.472.851.189.833.431 1.654.64 2.483.44 1.734.037 2.024-1.539 1.878-1.301-.12-1.623.986-1.52 2.075.138 1.473 1.188 2.122 2.509 2.176 1.27.053 1.493-.301 1.789 1.248.172.9.251 1.817.39 2.724.043.272.382.543.652.507 1.344-.182 2.69-.134 3.797-1.032 1.42-1.153-1.21-3.577.262-4.571 1.687-1.143 4.503 2.79 5.985 3.476 1.6.743 3.933-.44 5.492-.801.614-.143.609-.945.162-1.265-1.184-.844-2.268-1.818-3.426-2.695-1.17-.885-2.536-1.34-3.699-2.113-.733-.489-1.409.71-.681 1.193l.045.031c.733.486 1.409-.71.682-1.194l-.046-.03c-.733-.489-1.409.71-.681 1.193.956.636 2.098.953 3.075 1.642 1.4.988 2.655 2.173 4.05 3.167l.16-1.263c-.917.213-1.815.5-2.729.732-1.701.43-2.425-.209-3.634-1.247-1.28-1.099-2.765-2.427-4.527-2.378-.845.024-1.956.934-2.033 1.834-.058.68.118 1.295.291 1.947.306 1.145-.298 1.734-1.37 1.867-.863.109-.646-.157-.566.364-.227-1.479-.3-3-.9-4.384-.136-.317-.42-.476-.723-.566-.263-.08-.686.064-.906.106l-.911.124c-1.319-1.158-1.514-1.641-.586-1.449 4.128.385 2.38-3.566 1.798-6.147-.157.283-.313.567-.471.85.778-.155 1.555-.369 2.35-.41.917-.047 1.033 2.324 1.18 2.945.189.813.823 1.654 1.736 1.47 1.648-.334 2.666-1.461 3.412-2.923.772-1.518 1.05-2.8 2.854-3.416 1.207-.412 2.578-.385 3.839-.577l-.762-1.015c-1.132 1.536-6.348 6.643-4.718 8.65.557.687 1.508-.297.955-.978M613.739 122.55c-.09-.11 2.01-3.103 2.41-3.658.814-1.125 1.694-2.199 2.518-3.318.405-.55-.261-1.09-.762-1.014-2.047.313-4.236.243-5.876 1.705-.642.57-1.001 1.564-1.347 2.323-.211.459-2.365 4.096-2.958 2.383-.422-1.215-.26-2.959-1.516-3.713-1.04-.622-2.616 0-3.674.212-.371.075-.55.506-.472.852.189.832.431 1.653.64 2.482.44 1.734.037 2.024-1.539 1.878-1.301-.12-1.623.986-1.52 2.075.138 1.474 1.188 2.122 2.509 2.176 1.27.053 1.493-.301 1.789 1.248.172.901.251 1.817.39 2.724.043.273.382.543.652.507 1.344-.182 2.69-.134 3.797-1.032 1.42-1.153-1.21-3.577.262-4.57 1.687-1.143 4.503 2.789 5.985 3.475 1.6.744 3.933-.44 5.492-.801.614-.142.609-.945.162-1.265-1.184-.843-2.268-1.818-3.426-2.695-1.17-.885-2.536-1.34-3.699-2.113-.733-.489-1.409.71-.681 1.194l.045.03c.733.486 1.409-.709.682-1.193l-.046-.03c-.733-.49-1.409.71-.681 1.193.956.635 2.098.952 3.075 1.64 1.4.989 2.655 2.175 4.05 3.168l.16-1.262c-.917.212-1.815.5-2.729.731-1.701.43-2.425-.208-3.634-1.247-1.28-1.099-2.765-2.427-4.527-2.378-.845.024-1.956.935-2.033 1.834-.058.68.118 1.295.291 1.947.306 1.145-.298 1.734-1.37 1.867-.863.11-.646-.157-.566.364-.227-1.479-.3-3-.9-4.384-.136-.316-.42-.476-.723-.566-.263-.08-.686.064-.906.106l-.911.125c-1.319-1.159-1.514-1.642-.586-1.45 4.128.386 2.38-3.566 1.798-6.146l-.471.85c.778-.156 1.555-.37 2.35-.411.917-.046 1.033 2.324 1.18 2.946.189.812.823 1.653 1.736 1.468 1.648-.333 2.666-1.46 3.412-2.922.772-1.517 1.05-2.8 2.854-3.416 1.207-.411 2.578-.384 3.839-.577l-.762-1.015c-1.132 1.537-6.348 6.643-4.718 8.65.557.687 1.508-.297.955-.978M538.364 128.17c-.09-.11 2.01-3.102 2.41-3.656.814-1.126 1.694-2.2 2.518-3.32.405-.548-.261-1.09-.762-1.013-2.047.313-4.236.243-5.876 1.705-.642.57-1.001 1.564-1.347 2.323-.211.46-2.365 4.096-2.958 2.383-.422-1.215-.26-2.958-1.516-3.713-1.04-.622-2.616 0-3.674.212-.371.075-.55.506-.472.852.189.832.431 1.653.64 2.482.44 1.734.037 2.025-1.539 1.878-1.301-.12-1.623.986-1.52 2.075.138 1.474 1.188 2.123 2.509 2.176 1.27.053 1.493-.301 1.789 1.248.172.901.251 1.817.39 2.724.043.273.382.543.652.508 1.344-.183 2.69-.134 3.797-1.033 1.42-1.153-1.21-3.577.262-4.57 1.687-1.143 4.503 2.79 5.985 3.475 1.6.744 3.933-.44 5.492-.801.614-.142.609-.945.162-1.265-1.184-.843-2.268-1.818-3.426-2.695-1.17-.885-2.536-1.34-3.699-2.112-.733-.49-1.409.71-.681 1.193l.045.03c.733.486 1.409-.709.682-1.193l-.046-.03c-.733-.49-1.409.71-.681 1.193.956.635 2.098.952 3.075 1.64 1.4.989 2.655 2.175 4.05 3.168l.16-1.262c-.917.212-1.815.5-2.729.731-1.701.43-2.425-.208-3.634-1.247-1.28-1.098-2.765-2.427-4.527-2.378-.845.024-1.956.935-2.033 1.834-.058.68.118 1.295.291 1.947.306 1.145-.298 1.734-1.37 1.867-.863.11-.646-.157-.566.364-.227-1.479-.3-3-.9-4.384-.136-.316-.42-.476-.723-.566-.263-.08-.686.064-.906.107-.304.04-.608.082-.911.124-1.319-1.158-1.514-1.642-.586-1.45 4.128.386 2.38-3.566 1.798-6.146l-.471.85c.778-.156 1.555-.37 2.35-.411.917-.046 1.033 2.325 1.18 2.946.189.812.823 1.653 1.736 1.469 1.648-.334 2.666-1.46 3.412-2.923.772-1.517 1.05-2.8 2.854-3.415 1.207-.412 2.578-.385 3.839-.578l-.762-1.015c-1.132 1.537-6.348 6.643-4.718 8.65.557.687 1.508-.297.955-.978M1279.4 84.264c.032.394-.2.288.353-.01.577-.31 1.24-.487 1.862-.68 1.313-.413 2.664-.72 4.006-1.023 2.065-.467 4.156-.81 6.22-1.268.938-.208 1.046-1.512.26-1.965-2.545-1.467-5.015-3.121-8.025-3.328-1.498-.101-3.086.32-4.523.661-1.434.343-5.074 2.065-6.166.443-.231-.343-.198.517.238-.454.308-.683.738-1.32 1.14-1.952.534-.842 1.302-1.644 1.568-2.618.537-1.965-2.766-3.907-4.177-4.484-1.853-.756-2.943.282-3.634 1.979-.514 1.261-.858 2.606-1.535 3.797-.537.944-2.37-1.46-2.823-1.766-1.735-1.176-3.777.633-4.093 2.424-.522 2.958 1.942 4.128 4.224 5.383l-.39-1.47-2.305 3.917c-.379.645-1.257 1.764-1.201 2.619.106 1.594 1.482 1.959 2.753 2.637 2.785 1.48 4.385.623 5.311-2.205.24-.73.494-1.369 1.032-1.939 1.106-1.172 1.91.617 2.279 1.366.791 1.603 1.09 3.501 1.444 5.235.916 4.496 4.415 5.932 8.124 7.991.81.449 1.883-.29 1.598-1.213-.702-2.277-1.592-4.5-2.347-6.759a49.954 49.954 0 0 1-1.095-3.681c-.19-.756.057-1.354-.163-2-.444-1.309-2.546-.747-2.098.57l.026.08c.443 1.306 2.546.744 2.098-.573l-.026-.078c-.444-1.308-2.546-.746-2.098.57-.246-.72-.1-.644-.112.075-.007.384.051.753.107 1.133.195 1.323.667 2.627 1.073 3.9.788 2.461 1.775 4.864 2.536 7.332.533-.404 1.066-.81 1.6-1.213-1.837-1.019-3.838-1.828-5.428-3.218-1.281-1.117-1.547-2.77-1.869-4.327-.466-2.249-1.067-5.797-3.204-7.17-2.127-1.367-4.27.232-5.158 2.225-.643 1.447-.493 3.107-2.532 2.04-.85-.443-1.798-.468-1.347-1.33.875-1.671 1.925-3.273 2.882-4.9.293-.497.127-1.185-.39-1.469-1.078-.594-2.388-1.108-3.155-2.11.026.032.053-2.658.87-1.913.303.278.567.61.847.907 1.071 1.133 2.55 1.6 4.011.958 1.461-.642 1.97-3.468 2.447-4.75.606-1.63 1.168-1.028 2.405-.208 1.355.899 1.45 1.116.67 2.26-.866 1.27-2.434 3.142-2.257 4.791.185 1.72 2.187 2.345 3.644 2.406 2.652.108 5.378-1.372 7.994-1.701 3.036-.383 5.648 1.556 8.132 2.987l.26-1.965c-2.86.633-5.746 1.117-8.59 1.833-1.415.358-5.619 1.072-5.449 3.221.108 1.374 2.285 1.385 2.176 0M1263.392 110.865c-.536-.711 3.957-5.72 4.532-6.485.43-.575-.28-1.141-.811-1.062-1.576.236-3.888.109-5.164 1.252-.534.476-.879.96-1.237 1.59-.155.27-2.42 4.726-3.032 3.247-.464-1.124-.226-2.84-1.444-3.557-1.039-.613-2.502-.056-3.568.156-.394.078-.584.529-.501.888.204.875.463 1.737.677 2.609.37 1.499-.624 1.35-1.648 1.312-1.172-.043-1.384 1.094-1.307 2 .099 1.146 1.041 2.164 2.235 2.096.82-.046 1.445-.47 1.692.5.257 1.013.325 2.072.483 3.103.044.287.407.568.693.532 3.219-.417 4.443-.747 3.526-4.207-.709-2.665 3.646.546 3.984.827.505.42 1.074 1.058 1.694 1.312 1.737.71 3.709-.236 5.418-.64.652-.152.647-.984.171-1.32-1.108-.784-2.128-1.681-3.218-2.49-1.101-.815-2.383-1.239-3.476-1.95-.78-.51-1.5.742-.726 1.245l.043.03c.78.509 1.5-.744.727-1.248-.016-.01-.03-.02-.044-.027-.78-.51-1.5.742-.726 1.245.864.564 1.892.838 2.774 1.433 1.363.92 2.578 2.059 3.922 3.008l.172-1.318c-.862.201-1.708.456-2.565.673-1.873.474-2.965-.855-4.306-1.908-.872-.686-2.308-1.755-3.533-1.416-.782.218-1.856.946-1.825 1.893.023.756.24 1.454.43 2.182.03.715-.255 1.066-.856 1.052l-.825.096c-.528.031-.579.046-.15.049-.172-1.287-.213-2.791-.926-3.909-.161-.255-.505-.432-.806-.432-.951 0-3.479-1.02-1.394-.871 3.335.238 1.44-4.267 1.075-5.843l-.501.887c.98-.194 2.341-.915 2.817.459.265.768.283 1.582.597 2.343.28.68 1.088 1.139 1.818.85 1.534-.61 2.36-1.458 3.089-2.937.64-1.297.892-2.325 2.516-2.87 1.133-.378 2.423-.355 3.606-.532l-.81-1.061c-1.033 1.372-5.912 6.11-4.532 7.943.551.733 1.8.013 1.24-.729M1397.647 48.943c-.685-.915 5.055-7.355 5.791-8.338.55-.74-.357-1.467-1.037-1.366-2.013.304-4.968.14-6.599 1.61-.682.613-1.122 1.235-1.58 2.045-.197.347-3.093 6.076-3.873 4.175-.593-1.445-.29-3.652-1.846-4.574-1.327-.788-3.197-.071-4.559.201-.504.1-.747.68-.64 1.141.26 1.126.59 2.234.865 3.354.472 1.928-.797 1.736-2.106 1.687-1.498-.055-1.769 1.407-1.67 2.573.126 1.472 1.33 2.782 2.856 2.694 1.049-.059 1.846-.604 2.161.643.33 1.302.416 2.664.618 3.99.056.369.52.73.885.684 4.113-.537 5.678-.96 4.505-5.41-.905-3.426 4.66.702 5.092 1.064.645.54 1.372 1.36 2.164 1.687 2.22.911 4.739-.304 6.923-.824.833-.195.827-1.264.22-1.696-1.417-1.008-2.72-2.162-4.114-3.201-1.407-1.048-3.044-1.594-4.44-2.508-.998-.655-1.917.954-.928 1.601.018.014.037.026.055.037.997.655 1.916-.955.928-1.603-.02-.013-.038-.025-.056-.035-.997-.655-1.916.954-.927 1.601 1.104.724 2.417 1.077 3.544 1.842 1.742 1.184 3.294 2.647 5.011 3.868l.22-1.695c-1.1.259-2.182.587-3.277.866-2.394.608-3.789-1.1-5.502-2.454-1.114-.882-2.95-2.256-4.515-1.82-1 .28-2.37 1.216-2.331 2.434.029.972.305 1.87.55 2.805.037.919-.327 1.37-1.095 1.352l-1.054.124c-.674.04-.74.06-.193.063-.218-1.654-.271-3.589-1.182-5.026-.206-.328-.645-.556-1.03-.556-1.215 0-4.445-1.31-1.782-1.12 4.262.306 1.842-5.485 1.374-7.512-.213.382-.426.761-.64 1.14 1.252-.249 2.992-1.175 3.6.59.339.988.361 2.034.763 3.013.358.875 1.39 1.465 2.323 1.092 1.96-.782 3.014-1.874 3.946-3.775.818-1.668 1.14-2.99 3.215-3.69 1.448-.486 3.096-.456 4.609-.684l-1.036-1.364c-1.32 1.764-7.554 7.856-5.791 10.212.704.943 2.3.018 1.585-.937M1236.424 86.392c.43-.575-.28-1.14-.811-1.062-1.576.236-3.888.11-5.164 1.253-.534.476-.879.96-1.237 1.59-.155.27-2.42 4.725-3.032 3.247-.464-1.124-.226-2.84-1.444-3.558-1.039-.612-2.502-.055-3.568.157-.394.078-.584.528-.501.887.204.876.463 1.738.677 2.61.37 1.498-.624 1.349-1.648 1.311-1.172-.043-1.384 1.094-1.307 2.001.099 1.145 1.041 2.164 2.235 2.096.82-.046 1.445-.47 1.692.5.257 1.012.325 2.071.483 3.103.044.287.407.567.693.532 3.219-.418 4.443-.747 3.526-4.207-.709-2.665 3.646.545 3.984.827.505.42 1.074 1.057 1.694 1.311 1.737.71 3.709-.236 5.418-.64.652-.152.647-.983.171-1.32-1.108-.783-2.128-1.68-3.218-2.49-1.101-.814-2.383-1.238-3.476-1.95-.78-.509-1.5.743-.726 1.246.824.538 1.543-.715.77-1.218-.824-.537-1.544.715-.77 1.218.864.563 1.892.837 2.774 1.432 1.363.921 2.578 2.059 3.922 3.009l.172-1.319c-.862.202-1.708.457-2.565.674-1.873.473-2.965-.855-4.306-1.909-.872-.686-2.308-1.754-3.533-1.415-.782.218-1.856.945-1.825 1.893.023.756.24 1.454.43 2.181.03.715-.255 1.066-.856 1.052l-.825.097c-.528.03-.579.046-.15.048-.172-1.286-.213-2.79-.926-3.908-.161-.256-.505-.433-.806-.433-.951 0-3.479-1.02-1.394-.87 3.335.237 1.44-4.268 1.075-5.844l-.501.888c.98-.195 2.341-.915 2.817.458.265.768.283 1.582.597 2.343.28.68 1.088 1.14 1.818.85 1.534-.609 2.36-1.458 3.089-2.936.64-1.298.892-2.326 2.516-2.87 1.133-.379 2.423-.356 3.606-.533l-.81-1.06c-1.033 1.372-5.912 6.11-4.532 7.943.551.733 1.8.013 1.24-.73-.536-.71 3.957-5.72 4.532-6.485z" mask="url(#b)"/>
    </g>
</svg>
