<svg xmlns="http://www.w3.org/2000/svg" xmlns:xlink="http://www.w3.org/1999/xlink" width="28" height="28" viewBox="0 0 28 28">
    <defs>
        <path id="a" d="M0 0h28v28H0z"/>
    </defs>
    <g fill="none" fill-rule="evenodd">
        <g>
            <mask id="b" fill="#fff">
                <use xlink:href="#a"/>
            </mask>
            <path fill="#D53F31" d="M28 14c0 7.732-6.268 14-14 14S0 21.732 0 14 6.268 0 14 0s14 6.268 14 14" mask="url(#b)"/>
        </g>
        <path fill="#FFF" d="M12.187 22.06s-3.873-.84-3.873-4.386c0-4.386 2.777-4.761 1.68-7.186 0 0 2.02.802 2.486 3.089 0 0 .36-1.036-.386-2.11-.747-1.073-1.423-3.97 1.703-6.77 0 0-1.097 2.71.267 4.017 1.505 1.442 1.39 2.614 1.343 3.174 0 0 1.12-2.194 3.36-2.894 0 0-1.027 3.08 0 5.04 1.188 2.269 2.427 5.367-2.147 8.4 0 0 1.027-2.426-.28-3.873-.997-1.105-1.446-3.127-1.353-4.153 0 0-1.447 1.659-.996 3.406 0 0-1.291-.14-1.384-1.353 0 0-1.913 2.8-.42 5.6"/>
    </g>
</svg>
