<svg xmlns="http://www.w3.org/2000/svg" width="34" height="34" viewBox="0 0 34 34">
    <g fill="none" fill-rule="evenodd">
        <path fill="#FFF" d="M27.2 1.7a5.1 5.1 0 0 1 5.1 5.1v20.4a5.1 5.1 0 0 1-5.1 5.1H6.8a5.1 5.1 0 0 1-5.1-5.1V6.8a5.1 5.1 0 0 1 5.1-5.1h20.4z"/>
        <path fill="#FAA71D" fill-rule="nonzero" d="M27.2 0H6.8A6.8 6.8 0 0 0 0 6.8v20.4A6.8 6.8 0 0 0 6.8 34h20.4a6.8 6.8 0 0 0 6.8-6.8V6.8A6.8 6.8 0 0 0 27.2 0zm0 1.7a5.1 5.1 0 0 1 5.1 5.1v20.4a5.1 5.1 0 0 1-5.1 5.1H6.8a5.1 5.1 0 0 1-5.1-5.1V6.8a5.1 5.1 0 0 1 5.1-5.1h20.4z"/>
        <path fill="#1281C5" fill-rule="nonzero" d="M20.706 17.289a.595.595 0 0 1 0-.867l6.579-6.222H22.1a.595.595 0 0 0-.442.187l-4.539 4.522a1.496 1.496 0 0 1-.952.391h-1.36a.306.306 0 0 1-.306-.306v-4.25a.595.595 0 0 0-.578-.544h-3.4v5.1H6.715V17c0 .826.67 1.496 1.496 1.496h2.295v5.1h3.4a.595.595 0 0 0 .595-.595V18.7a.306.306 0 0 1 .306-.289h1.326c.38.002.744.148 1.02.408l4.488 4.539a.595.595 0 0 0 .425.17H27.2l-6.562-6.307"/>
    </g>
</svg>
