<svg xmlns="http://www.w3.org/2000/svg" xmlns:xlink="http://www.w3.org/1999/xlink" width="28" height="28" viewBox="0 0 28 28">
    <defs>
        <path id="a" d="M13.74 0H0v27.479h27.479V0z"/>
    </defs>
    <g fill="none" fill-rule="evenodd">
        <g>
            <mask id="b" fill="#fff">
                <use xlink:href="#a"/>
            </mask>
            <path fill="#FAAA1D" d="M27.51 13.755c0 7.596-6.16 13.755-13.755 13.755C6.159 27.51 0 21.351 0 13.755 0 6.159 6.159 0 13.755 0 21.35 0 27.51 6.159 27.51 13.755" mask="url(#b)"/>
        </g>
        <path fill="#FFF" d="M15.452 21.656h-4.897a3.754 3.754 0 0 1-3.754-3.755v-4.117a3.755 3.755 0 0 1 3.754-3.755h4.897a3.755 3.755 0 0 1 3.755 3.755v4.117a3.754 3.754 0 0 1-3.755 3.755"/>
        <path fill="#FFF" d="M19.688 13.19h-3.619a1.58 1.58 0 0 1 0-3.16h3.619a1.58 1.58 0 0 1 0 3.16"/>
        <path fill="#FFF" d="M19.782 16.075h-3.807a1.485 1.485 0 0 1 0-2.97h3.807a1.486 1.486 0 0 1 0 2.97M19.456 19.011h-3.842c-.81 0-1.468-.657-1.468-1.467v-.001c0-.81.658-1.467 1.468-1.467h3.842c.811 0 1.468.657 1.468 1.467v.001c0 .81-.657 1.467-1.468 1.467"/>
        <path fill="#FFF" d="M18.558 21.656h-3.739a1.52 1.52 0 1 1 0-3.039h3.739a1.52 1.52 0 1 1 0 3.04M12.959 6.296l-1.461 7.27c-.342.97-2.502 1.477-3.471 1.136a1.861 1.861 0 0 1-1.138-2.373L9.45 5.06a1.86 1.86 0 1 1 3.51 1.236"/>
    </g>
</svg>
